# MagicaVoxel @ Ephtracy

# group
o 

# material
mtllib 2022 Torii (Wheezy Woods)-14.mtl
usemtl palette

# normals
vn -1 0 0
vn 1 0 0
vn 0 0 1
vn 0 0 -1
vn 0 -1 0
vn 0 1 0

# texcoords
vt 0.751953 0.5
vt 0.845703 0.5
vt 0.849609 0.5
vt 0.876953 0.5
vt 0.880859 0.5

# verts
v -0.7 0 0.7
v -0.7 0 -0.8
v -0.7 0.1 0.7
v -0.7 0.1 0.6
v -0.7 0.1 0.2
v -0.7 0.1 0.1
v -0.7 0.2 0.7
v -0.7 0.2 0.6
v -0.7 0.2 0.5
v -0.7 0.2 0.3
v -0.7 0.2 0.2
v -0.7 0.2 0.1
v -0.7 0.2 -0.2
v -0.7 0.2 -0.3
v -0.7 0.2 -0.4
v -0.7 0.2 -0.6
v -0.7 0.2 -0.7
v -0.7 0.2 -0.8
v -0.7 0.3 0.7
v -0.7 0.3 0.6
v -0.7 0.3 0.5
v -0.7 0.3 0.3
v -0.7 0.3 -0.2
v -0.7 0.3 -0.3
v -0.7 0.3 -0.5
v -0.7 0.3 -0.6
v -0.7 0.4 -0.4
v -0.7 0.4 -0.5
v -0.7 0.5 0.7
v -0.7 0.5 -0.6
v -0.7 0.5 -0.7
v -0.7 0.5 -0.8
v 0.8 0 0.7
v 0.8 0 -0.8
v 0.8 0.1 0.6
v 0.8 0.1 0.4
v 0.8 0.1 -0.7
v 0.8 0.1 -0.8
v 0.8 0.2 0.7
v 0.8 0.2 0.6
v 0.8 0.2 -0.1
v 0.8 0.2 -0.2
v 0.8 0.2 -0.6
v 0.8 0.2 -0.7
v 0.8 0.3 0.4
v 0.8 0.3 0.3
v 0.8 0.3 0
v 0.8 0.3 -0.1
v 0.8 0.3 -0.2
v 0.8 0.3 -0.6
v 0.8 0.4 0.3
v 0.8 0.4 0
v 0.8 0.4 -0.1
v 0.8 0.5 0.7
v 0.8 0.5 0.6
v 0.8 0.5 0
v 0.8 0.5 -0.1
v 0.8 0.5 -0.8
v -0.7 0 0.7
v -0.7 0.1 0.7
v -0.7 0.2 0.7
v -0.7 0.3 0.7
v -0.7 0.5 0.7
v -0.6 0.2 0.7
v -0.6 0.3 0.7
v -0.5 0.1 0.7
v -0.5 0.2 0.7
v -0.4 0.2 0.7
v -0.4 0.3 0.7
v -0.3 0.2 0.7
v -0.3 0.3 0.7
v -0.2 0.2 0.7
v -0.2 0.4 0.7
v 0 0.3 0.7
v 0 0.4 0.7
v 0.2 0.2 0.7
v 0.2 0.3 0.7
v 0.3 0.2 0.7
v 0.3 0.3 0.7
v 0.4 0.3 0.7
v 0.4 0.4 0.7
v 0.5 0.3 0.7
v 0.5 0.4 0.7
v 0.5 0.5 0.7
v 0.6 0.2 0.7
v 0.6 0.3 0.7
v 0.6 0.5 0.7
v 0.8 0 0.7
v 0.8 0.2 0.7
v 0.8 0.5 0.7
v -0.7 0 -0.8
v -0.7 0.2 -0.8
v -0.7 0.5 -0.8
v -0.6 0.2 -0.8
v -0.6 0.3 -0.8
v -0.4 0.2 -0.8
v -0.4 0.3 -0.8
v -0.3 0.2 -0.8
v -0.3 0.3 -0.8
v -0.2 0.1 -0.8
v -0.2 0.2 -0.8
v -0.2 0.3 -0.8
v -0.2 0.4 -0.8
v -0.1 0.1 -0.8
v -0.1 0.2 -0.8
v 0 0.2 -0.8
v 0 0.4 -0.8
v 0.2 0.2 -0.8
v 0.2 0.3 -0.8
v 0.3 0.3 -0.8
v 0.3 0.4 -0.8
v 0.4 0.2 -0.8
v 0.4 0.4 -0.8
v 0.5 0.2 -0.8
v 0.5 0.3 -0.8
v 0.5 0.5 -0.8
v 0.7 0.1 -0.8
v 0.7 0.3 -0.8
v 0.7 0.5 -0.8
v 0.8 0 -0.8
v 0.8 0.1 -0.8
v 0.8 0.5 -0.8
v -0.7 0 0.7
v 0.8 0 0.7
v -0.7 0 -0.8
v 0.8 0 -0.8
v -0.7 0.5 0.7
v 0.5 0.5 0.7
v 0.6 0.5 0.7
v 0.8 0.5 0.7
v -0.2 0.5 0.6
v -0.1 0.5 0.6
v 0.4 0.5 0.6
v 0.5 0.5 0.6
v 0.6 0.5 0.6
v 0.8 0.5 0.6
v -0.3 0.5 0.5
v -0.2 0.5 0.5
v -0.1 0.5 0.5
v 0.1 0.5 0.5
v 0.4 0.5 0.5
v 0.5 0.5 0.5
v -0.1 0.5 0.4
v 0.1 0.5 0.4
v 0.2 0.5 0.4
v 0.3 0.5 0.4
v -0.5 0.5 0.3
v -0.3 0.5 0.3
v -0.2 0.5 0.3
v 0.1 0.5 0.3
v 0.2 0.5 0.3
v 0.3 0.5 0.3
v -0.5 0.5 0.2
v -0.4 0.5 0.2
v 0.1 0.5 0.2
v 0.2 0.5 0.2
v 0.4 0.5 0.2
v 0.6 0.5 0.2
v 0.7 0.5 0.2
v -0.5 0.5 0.1
v -0.4 0.5 0.1
v -0.3 0.5 0.1
v -0.5 0.5 0
v -0.4 0.5 0
v -0.3 0.5 0
v -0.1 0.5 0
v 0.1 0.5 0
v 0.3 0.5 0
v 0.4 0.5 0
v 0.6 0.5 0
v 0.7 0.5 0
v 0.8 0.5 0
v -0.6 0.5 -0.1
v -0.5 0.5 -0.1
v -0.4 0.5 -0.1
v 0.3 0.5 -0.1
v 0.4 0.5 -0.1
v 0.5 0.5 -0.1
v 0.6 0.5 -0.1
v 0.7 0.5 -0.1
v 0.8 0.5 -0.1
v 0.4 0.5 -0.2
v 0.5 0.5 -0.2
v 0.6 0.5 -0.2
v -0.6 0.5 -0.3
v -0.5 0.5 -0.3
v -0.4 0.5 -0.3
v -0.3 0.5 -0.3
v -0.2 0.5 -0.3
v -0.1 0.5 -0.3
v 0.1 0.5 -0.3
v 0.4 0.5 -0.3
v 0.6 0.5 -0.3
v -0.6 0.5 -0.4
v -0.5 0.5 -0.4
v -0.4 0.5 -0.4
v -0.3 0.5 -0.4
v -0.2 0.5 -0.4
v 0.2 0.5 -0.4
v 0.3 0.5 -0.4
v -0.4 0.5 -0.5
v -0.3 0.5 -0.5
v -0.2 0.5 -0.5
v 0 0.5 -0.5
v 0.1 0.5 -0.5
v 0.2 0.5 -0.5
v 0.3 0.5 -0.5
v -0.7 0.5 -0.6
v -0.6 0.5 -0.6
v -0.4 0.5 -0.6
v -0.3 0.5 -0.6
v -0.2 0.5 -0.6
v 0 0.5 -0.6
v 0.1 0.5 -0.6
v 0.2 0.5 -0.6
v 0.3 0.5 -0.6
v 0.4 0.5 -0.6
v -0.7 0.5 -0.7
v -0.6 0.5 -0.7
v 0.5 0.5 -0.7
v 0.7 0.5 -0.7
v -0.7 0.5 -0.8
v 0.5 0.5 -0.8
v 0.7 0.5 -0.8
v 0.8 0.5 -0.8

# faces
f 3/1/1 2/1/1 1/1/1
f 4/1/1 2/1/1 3/1/1
f 5/1/1 2/1/1 4/1/1
f 6/1/1 2/1/1 5/1/1
f 7/2/1 4/2/1 3/2/1
f 8/1/1 5/1/1 4/1/1
f 8/2/1 4/2/1 7/2/1
f 9/1/1 5/1/1 8/1/1
f 10/1/1 5/1/1 9/1/1
f 11/2/1 6/2/1 5/2/1
f 11/1/1 5/1/1 10/1/1
f 12/1/1 2/1/1 6/1/1
f 12/2/1 6/2/1 11/2/1
f 13/1/1 2/1/1 12/1/1
f 14/1/1 2/1/1 13/1/1
f 15/1/1 2/1/1 14/1/1
f 16/1/1 2/1/1 15/1/1
f 17/1/1 2/1/1 16/1/1
f 18/1/1 2/1/1 17/1/1
f 19/1/1 8/1/1 7/1/1
f 20/2/1 9/2/1 8/2/1
f 20/1/1 8/1/1 19/1/1
f 21/1/1 10/1/1 9/1/1
f 21/2/1 9/2/1 20/2/1
f 22/2/1 11/2/1 10/2/1
f 22/1/1 10/1/1 21/1/1
f 22/2/1 12/2/1 11/2/1
f 22/2/1 13/2/1 12/2/1
f 23/1/1 14/1/1 13/1/1
f 23/2/1 13/2/1 22/2/1
f 24/2/1 15/2/1 14/2/1
f 24/1/1 14/1/1 23/1/1
f 25/1/1 16/1/1 15/1/1
f 26/3/1 17/3/1 16/3/1
f 26/1/1 16/1/1 25/1/1
f 27/2/1 21/2/1 20/2/1
f 27/2/1 20/2/1 19/2/1
f 27/1/1 25/1/1 15/1/1
f 27/2/1 24/2/1 23/2/1
f 27/2/1 15/2/1 24/2/1
f 27/2/1 23/2/1 22/2/1
f 27/2/1 22/2/1 21/2/1
f 28/2/1 26/2/1 25/2/1
f 28/1/1 25/1/1 27/1/1
f 29/2/1 27/2/1 19/2/1
f 29/2/1 28/2/1 27/2/1
f 30/3/1 17/3/1 26/3/1
f 30/2/1 28/2/1 29/2/1
f 30/2/1 26/2/1 28/2/1
f 31/2/1 18/2/1 17/2/1
f 31/3/1 17/3/1 30/3/1
f 32/2/1 18/2/1 31/2/1
f 33/1/2 34/1/2 35/1/2
f 35/1/2 34/1/2 36/1/2
f 36/1/2 34/1/2 37/1/2
f 37/1/2 34/1/2 38/1/2
f 33/1/2 35/1/2 39/1/2
f 35/2/2 36/2/2 40/2/2
f 39/1/2 35/1/2 40/1/2
f 36/1/2 37/1/2 41/1/2
f 41/1/2 37/1/2 42/1/2
f 42/1/2 37/1/2 43/1/2
f 37/2/2 38/2/2 44/2/2
f 43/1/2 37/1/2 44/1/2
f 40/2/2 36/2/2 45/2/2
f 36/1/2 41/1/2 45/1/2
f 45/1/2 41/1/2 46/1/2
f 46/1/2 41/1/2 47/1/2
f 41/2/2 42/2/2 48/2/2
f 47/1/2 41/1/2 48/1/2
f 42/1/2 43/1/2 49/1/2
f 48/2/2 42/2/2 49/2/2
f 43/2/2 44/2/2 50/2/2
f 49/1/2 43/1/2 50/1/2
f 46/1/2 47/1/2 51/1/2
f 45/2/2 46/2/2 51/2/2
f 47/2/2 48/2/2 52/2/2
f 51/1/2 47/1/2 52/1/2
f 48/2/2 49/2/2 52/2/2
f 49/2/2 50/2/2 52/2/2
f 52/2/2 50/2/2 53/2/2
f 39/4/2 40/4/2 54/4/2
f 45/2/2 51/2/2 55/2/2
f 54/4/2 40/4/2 55/4/2
f 40/2/2 45/2/2 55/2/2
f 51/2/2 52/2/2 55/2/2
f 52/3/2 53/3/2 56/3/2
f 55/2/2 52/2/2 56/2/2
f 53/2/2 50/2/2 57/2/2
f 56/3/2 53/3/2 57/3/2
f 44/2/2 38/2/2 58/2/2
f 57/2/2 50/2/2 58/2/2
f 50/2/2 44/2/2 58/2/2
f 64/2/3 61/2/3 60/2/3
f 64/1/3 62/1/3 61/1/3
f 65/2/3 63/2/3 62/2/3
f 65/1/3 62/1/3 64/1/3
f 66/1/3 60/1/3 59/1/3
f 66/2/3 64/2/3 60/2/3
f 66/2/3 65/2/3 64/2/3
f 67/2/3 65/2/3 66/2/3
f 68/1/3 67/1/3 66/1/3
f 68/2/3 65/2/3 67/2/3
f 69/2/3 63/2/3 65/2/3
f 69/2/3 65/2/3 68/2/3
f 70/1/3 68/1/3 66/1/3
f 70/1/3 69/1/3 68/1/3
f 71/2/3 63/2/3 69/2/3
f 71/1/3 69/1/3 70/1/3
f 72/1/3 70/1/3 66/1/3
f 72/2/3 71/2/3 70/2/3
f 73/2/3 63/2/3 71/2/3
f 73/2/3 71/2/3 72/2/3
f 74/1/3 73/1/3 72/1/3
f 75/2/3 63/2/3 73/2/3
f 75/1/3 73/1/3 74/1/3
f 76/1/3 72/1/3 66/1/3
f 76/1/3 74/1/3 72/1/3
f 77/2/3 75/2/3 74/2/3
f 77/1/3 74/1/3 76/1/3
f 78/1/3 76/1/3 66/1/3
f 78/2/3 77/2/3 76/2/3
f 79/2/3 75/2/3 77/2/3
f 79/2/3 77/2/3 78/2/3
f 80/1/3 79/1/3 78/1/3
f 80/2/3 75/2/3 79/2/3
f 81/2/3 63/2/3 75/2/3
f 81/2/3 75/2/3 80/2/3
f 82/1/3 80/1/3 78/1/3
f 82/1/3 81/1/3 80/1/3
f 83/2/3 63/2/3 81/2/3
f 83/1/3 81/1/3 82/1/3
f 84/2/3 63/2/3 83/2/3
f 85/1/3 82/1/3 78/1/3
f 85/1/3 78/1/3 66/1/3
f 86/3/3 84/3/3 83/3/3
f 86/1/3 82/1/3 85/1/3
f 86/3/3 83/3/3 82/3/3
f 87/3/3 84/3/3 86/3/3
f 88/1/3 66/1/3 59/1/3
f 88/1/3 85/1/3 66/1/3
f 89/4/3 87/4/3 86/4/3
f 89/1/3 85/1/3 88/1/3
f 89/4/3 86/4/3 85/4/3
f 90/4/3 87/4/3 89/4/3
f 91/1/4 92/1/4 94/1/4
f 92/2/4 93/2/4 94/2/4
f 94/2/4 93/2/4 95/2/4
f 91/1/4 94/1/4 96/1/4
f 94/1/4 95/1/4 96/1/4
f 95/2/4 93/2/4 97/2/4
f 96/1/4 95/1/4 97/1/4
f 91/1/4 96/1/4 98/1/4
f 96/2/4 97/2/4 98/2/4
f 97/2/4 93/2/4 99/2/4
f 98/2/4 97/2/4 99/2/4
f 91/1/4 98/1/4 100/1/4
f 98/1/4 99/1/4 100/1/4
f 100/1/4 99/1/4 101/1/4
f 99/2/4 93/2/4 102/2/4
f 101/1/4 99/1/4 102/1/4
f 102/2/4 93/2/4 103/2/4
f 100/2/4 101/2/4 104/2/4
f 91/1/4 100/1/4 104/1/4
f 102/1/4 103/1/4 105/1/4
f 104/2/4 101/2/4 105/2/4
f 101/1/4 102/1/4 105/1/4
f 104/1/4 105/1/4 106/1/4
f 105/1/4 103/1/4 106/1/4
f 103/2/4 93/2/4 107/2/4
f 106/1/4 103/1/4 107/1/4
f 104/1/4 106/1/4 108/1/4
f 106/2/4 107/2/4 108/2/4
f 108/2/4 107/2/4 109/2/4
f 108/1/4 109/1/4 110/1/4
f 109/2/4 107/2/4 110/2/4
f 107/2/4 93/2/4 111/2/4
f 110/2/4 107/2/4 111/2/4
f 108/1/4 110/1/4 112/1/4
f 104/1/4 108/1/4 112/1/4
f 110/1/4 111/1/4 112/1/4
f 111/2/4 93/2/4 113/2/4
f 112/1/4 111/1/4 113/1/4
f 104/1/4 112/1/4 114/1/4
f 112/2/4 113/2/4 114/2/4
f 114/2/4 113/2/4 115/2/4
f 113/2/4 93/2/4 116/2/4
f 115/2/4 113/2/4 116/2/4
f 114/1/4 115/1/4 117/1/4
f 91/1/4 104/1/4 117/1/4
f 104/1/4 114/1/4 117/1/4
f 115/4/4 116/4/4 118/4/4
f 117/1/4 115/1/4 118/1/4
f 118/4/4 116/4/4 119/4/4
f 91/1/4 117/1/4 120/1/4
f 117/2/4 118/2/4 121/2/4
f 120/1/4 117/1/4 121/1/4
f 118/2/4 119/2/4 121/2/4
f 121/2/4 119/2/4 122/2/4
f 125/1/5 124/1/5 123/1/5
f 126/1/5 124/1/5 125/1/5
f 127/2/6 128/2/6 131/2/6
f 131/2/6 128/2/6 132/2/6
f 132/2/6 128/2/6 133/2/6
f 128/3/6 129/3/6 134/3/6
f 133/2/6 128/2/6 134/2/6
f 129/4/6 130/4/6 135/4/6
f 134/3/6 129/3/6 135/3/6
f 135/4/6 130/4/6 136/4/6
f 127/2/6 131/2/6 137/2/6
f 131/3/6 132/3/6 138/3/6
f 137/2/6 131/2/6 138/2/6
f 132/2/6 133/2/6 139/2/6
f 138/3/6 132/3/6 139/3/6
f 139/2/6 133/2/6 140/2/6
f 133/3/6 134/3/6 141/3/6
f 140/2/6 133/2/6 141/2/6
f 134/2/6 135/2/6 142/2/6
f 141/3/6 134/3/6 142/3/6
f 135/2/6 136/2/6 142/2/6
f 139/2/6 140/2/6 143/2/6
f 138/4/6 139/4/6 143/4/6
f 140/4/6 141/4/6 144/4/6
f 143/2/6 140/2/6 144/2/6
f 144/4/6 141/4/6 145/4/6
f 145/4/6 141/4/6 146/4/6
f 127/2/6 137/2/6 147/2/6
f 137/3/6 138/3/6 148/3/6
f 147/2/6 137/2/6 148/2/6
f 138/4/6 143/4/6 149/4/6
f 148/3/6 138/3/6 149/3/6
f 143/4/6 144/4/6 149/4/6
f 144/4/6 145/4/6 149/4/6
f 149/4/6 145/4/6 150/4/6
f 145/2/6 146/2/6 151/2/6
f 150/4/6 145/4/6 151/4/6
f 146/4/6 141/4/6 152/4/6
f 151/2/6 146/2/6 152/2/6
f 127/2/6 147/2/6 153/2/6
f 147/4/6 148/4/6 153/4/6
f 149/4/6 150/4/6 153/4/6
f 148/4/6 149/4/6 153/4/6
f 153/4/6 150/4/6 154/4/6
f 150/5/6 151/5/6 155/5/6
f 154/4/6 150/4/6 155/4/6
f 151/4/6 152/4/6 156/4/6
f 155/5/6 151/5/6 156/5/6
f 152/4/6 141/4/6 157/4/6
f 156/4/6 152/4/6 157/4/6
f 141/2/6 142/2/6 157/2/6
f 142/2/6 136/2/6 158/2/6
f 157/2/6 142/2/6 158/2/6
f 158/2/6 136/2/6 159/2/6
f 153/2/6 154/2/6 160/2/6
f 127/2/6 153/2/6 160/2/6
f 156/4/6 157/4/6 161/4/6
f 160/2/6 154/2/6 161/2/6
f 155/4/6 156/4/6 161/4/6
f 157/4/6 158/4/6 161/4/6
f 154/4/6 155/4/6 161/4/6
f 161/4/6 158/4/6 162/4/6
f 127/2/6 160/2/6 163/2/6
f 160/4/6 161/4/6 163/4/6
f 161/5/6 162/5/6 164/5/6
f 163/4/6 161/4/6 164/4/6
f 162/4/6 158/4/6 165/4/6
f 164/5/6 162/5/6 165/5/6
f 165/4/6 158/4/6 166/4/6
f 166/4/6 158/4/6 167/4/6
f 167/4/6 158/4/6 168/4/6
f 168/4/6 158/4/6 169/4/6
f 158/3/6 159/3/6 170/3/6
f 169/4/6 158/4/6 170/4/6
f 159/2/6 136/2/6 171/2/6
f 170/3/6 159/3/6 171/3/6
f 171/2/6 136/2/6 172/2/6
f 127/2/6 163/2/6 173/2/6
f 163/3/6 164/3/6 174/3/6
f 173/2/6 163/2/6 174/2/6
f 164/4/6 165/4/6 175/4/6
f 174/3/6 164/3/6 175/3/6
f 165/4/6 166/4/6 175/4/6
f 168/5/6 169/5/6 176/5/6
f 167/4/6 168/4/6 176/4/6
f 169/3/6 170/3/6 177/3/6
f 176/5/6 169/5/6 177/5/6
f 177/3/6 170/3/6 178/3/6
f 170/2/6 171/2/6 179/2/6
f 178/3/6 170/3/6 179/3/6
f 171/3/6 172/3/6 180/3/6
f 179/2/6 171/2/6 180/2/6
f 180/3/6 172/3/6 181/3/6
f 177/3/6 178/3/6 182/3/6
f 176/4/6 177/4/6 182/4/6
f 178/2/6 179/2/6 183/2/6
f 182/3/6 178/3/6 183/3/6
f 180/2/6 181/2/6 183/2/6
f 179/2/6 180/2/6 183/2/6
f 183/2/6 181/2/6 184/2/6
f 127/2/6 173/2/6 185/2/6
f 173/3/6 174/3/6 185/3/6
f 174/4/6 175/4/6 186/4/6
f 185/3/6 174/3/6 186/3/6
f 175/4/6 166/4/6 187/4/6
f 186/4/6 175/4/6 187/4/6
f 187/4/6 166/4/6 188/4/6
f 188/4/6 166/4/6 189/4/6
f 166/2/6 167/2/6 190/2/6
f 189/4/6 166/4/6 190/4/6
f 167/4/6 176/4/6 191/4/6
f 190/2/6 167/2/6 191/2/6
f 183/4/6 184/4/6 191/4/6
f 176/4/6 182/4/6 191/4/6
f 182/4/6 183/4/6 191/4/6
f 191/4/6 184/4/6 192/4/6
f 184/2/6 181/2/6 193/2/6
f 192/4/6 184/4/6 193/4/6
f 185/4/6 186/4/6 194/4/6
f 127/2/6 185/2/6 194/2/6
f 186/3/6 187/3/6 195/3/6
f 194/4/6 186/4/6 195/4/6
f 187/4/6 188/4/6 196/4/6
f 195/3/6 187/3/6 196/3/6
f 188/5/6 189/5/6 197/5/6
f 196/4/6 188/4/6 197/4/6
f 191/4/6 192/4/6 198/4/6
f 197/5/6 189/5/6 198/5/6
f 189/4/6 190/4/6 198/4/6
f 190/4/6 191/4/6 198/4/6
f 198/4/6 192/4/6 199/4/6
f 199/4/6 192/4/6 200/4/6
f 196/3/6 197/3/6 201/3/6
f 194/2/6 195/2/6 201/2/6
f 195/2/6 196/2/6 201/2/6
f 197/3/6 198/3/6 201/3/6
f 201/3/6 198/3/6 202/3/6
f 198/4/6 199/4/6 203/4/6
f 202/3/6 198/3/6 203/3/6
f 203/4/6 199/4/6 204/4/6
f 204/4/6 199/4/6 205/4/6
f 199/5/6 200/5/6 206/5/6
f 205/4/6 199/4/6 206/4/6
f 200/4/6 192/4/6 207/4/6
f 206/5/6 200/5/6 207/5/6
f 127/2/6 194/2/6 208/2/6
f 194/2/6 201/2/6 208/2/6
f 208/2/6 201/2/6 209/2/6
f 201/4/6 202/4/6 210/4/6
f 209/2/6 201/2/6 210/2/6
f 202/2/6 203/2/6 211/2/6
f 210/4/6 202/4/6 211/4/6
f 203/4/6 204/4/6 212/4/6
f 211/2/6 203/2/6 212/2/6
f 204/2/6 205/2/6 213/2/6
f 212/4/6 204/4/6 213/4/6
f 205/4/6 206/4/6 214/4/6
f 213/2/6 205/2/6 214/2/6
f 206/2/6 207/2/6 215/2/6
f 214/4/6 206/4/6 215/4/6
f 207/4/6 192/4/6 216/4/6
f 215/2/6 207/2/6 216/2/6
f 192/2/6 193/2/6 217/2/6
f 216/4/6 192/4/6 217/4/6
f 208/3/6 209/3/6 218/3/6
f 212/2/6 213/2/6 219/2/6
f 218/3/6 209/3/6 219/3/6
f 211/2/6 212/2/6 219/2/6
f 216/2/6 217/2/6 219/2/6
f 214/2/6 215/2/6 219/2/6
f 210/2/6 211/2/6 219/2/6
f 209/2/6 210/2/6 219/2/6
f 213/2/6 214/2/6 219/2/6
f 215/2/6 216/2/6 219/2/6
f 217/2/6 193/2/6 220/2/6
f 219/2/6 217/2/6 220/2/6
f 193/2/6 181/2/6 221/2/6
f 220/2/6 193/2/6 221/2/6
f 219/2/6 220/2/6 222/2/6
f 218/2/6 219/2/6 222/2/6
f 220/4/6 221/4/6 223/4/6
f 222/2/6 220/2/6 223/2/6
f 221/2/6 181/2/6 224/2/6
f 223/4/6 221/4/6 224/4/6
f 224/2/6 181/2/6 225/2/6
