# MagicaVoxel @ Ephtracy

# group
o 

# material
mtllib 2022 Torii (Wheezy Woods)-12.mtl
usemtl palette

# normals
vn -1 0 0
vn 1 0 0
vn 0 0 1
vn 0 0 -1
vn 0 -1 0
vn 0 1 0

# texcoords
vt 0.751953 0.5
vt 0.845703 0.5
vt 0.849609 0.5

# verts
v -0.7 0 0.7
v -0.7 0 -0.8
v -0.7 0.1 0.5
v -0.7 0.1 0.4
v -0.7 0.1 0.1
v -0.7 0.1 0
v -0.7 0.1 -0.4
v -0.7 0.1 -0.7
v -0.7 0.2 0.7
v -0.7 0.2 0.6
v -0.7 0.2 0.4
v -0.7 0.2 0.2
v -0.7 0.2 0.1
v -0.7 0.2 0
v -0.7 0.2 -0.2
v -0.7 0.2 -0.4
v -0.7 0.2 -0.7
v -0.7 0.2 -0.8
v -0.7 0.3 0.6
v -0.7 0.3 0.5
v -0.7 0.3 0.2
v -0.7 0.3 -0.2
v -0.7 0.5 0.7
v -0.7 0.5 -0.8
v 0.8 0 0.7
v 0.8 0 -0.8
v 0.8 0.1 -0.1
v 0.8 0.1 -0.2
v 0.8 0.2 0.7
v 0.8 0.2 0.6
v 0.8 0.2 0.4
v 0.8 0.2 -0.1
v 0.8 0.2 -0.2
v 0.8 0.3 0.6
v 0.8 0.3 0.5
v 0.8 0.3 -0.1
v 0.8 0.3 -0.5
v 0.8 0.4 0.5
v 0.8 0.4 0.4
v 0.8 0.4 -0.5
v 0.8 0.4 -0.7
v 0.8 0.4 -0.8
v 0.8 0.5 0.7
v 0.8 0.5 -0.7
v 0.8 0.5 -0.8
v -0.7 0 0.7
v -0.7 0.2 0.7
v -0.7 0.5 0.7
v -0.3 0.2 0.7
v -0.3 0.3 0.7
v 0.1 0.3 0.7
v 0.1 0.4 0.7
v 0.2 0.1 0.7
v 0.2 0.3 0.7
v 0.4 0.1 0.7
v 0.4 0.3 0.7
v 0.5 0.2 0.7
v 0.5 0.4 0.7
v 0.8 0 0.7
v 0.8 0.2 0.7
v 0.8 0.5 0.7
v -0.7 0 -0.8
v -0.7 0.2 -0.8
v -0.7 0.5 -0.8
v -0.4 0.2 -0.8
v -0.4 0.3 -0.8
v -0.2 0.2 -0.8
v -0.2 0.3 -0.8
v 0 0.2 -0.8
v 0 0.3 -0.8
v 0.2 0.2 -0.8
v 0.2 0.3 -0.8
v 0.4 0.1 -0.8
v 0.4 0.2 -0.8
v 0.5 0.1 -0.8
v 0.5 0.2 -0.8
v 0.6 0.2 -0.8
v 0.6 0.3 -0.8
v 0.7 0.3 -0.8
v 0.7 0.4 -0.8
v 0.7 0.5 -0.8
v 0.8 0 -0.8
v 0.8 0.4 -0.8
v 0.8 0.5 -0.8
v -0.7 0 0.7
v 0.8 0 0.7
v -0.7 0 -0.8
v 0.8 0 -0.8
v -0.7 0.5 0.7
v 0.8 0.5 0.7
v 0.1 0.5 0.6
v 0.2 0.5 0.6
v 0.4 0.5 0.6
v 0.5 0.5 0.6
v 0 0.5 0.5
v 0.1 0.5 0.5
v 0.3 0.5 0.5
v 0.4 0.5 0.5
v 0.2 0.5 0.4
v 0.3 0.5 0.4
v 0.5 0.5 0.4
v 0.7 0.5 0.4
v -0.1 0.5 0.3
v 0 0.5 0.3
v 0.6 0.5 0.3
v 0.7 0.5 0.3
v -0.2 0.5 0.2
v -0.1 0.5 0.2
v 0.6 0.5 0.2
v 0.7 0.5 0.2
v -0.3 0.5 0.1
v -0.2 0.5 0.1
v -0.3 0.5 0
v -0.2 0.5 0
v 0 0.5 0
v 0.3 0.5 0
v 0.6 0.5 0
v 0.7 0.5 0
v -0.3 0.5 -0.1
v -0.2 0.5 -0.1
v 0.2 0.5 -0.1
v 0.3 0.5 -0.1
v 0.5 0.5 -0.1
v 0.6 0.5 -0.1
v -0.3 0.5 -0.2
v -0.1 0.5 -0.2
v 0 0.5 -0.2
v 0.2 0.5 -0.2
v -0.3 0.5 -0.3
v -0.1 0.5 -0.3
v 0.3 0.5 -0.4
v 0.4 0.5 -0.4
v -0.3 0.5 -0.5
v -0.2 0.5 -0.5
v 0 0.5 -0.5
v 0.1 0.5 -0.5
v 0.4 0.5 -0.5
v 0.5 0.5 -0.5
v -0.2 0.5 -0.6
v -0.1 0.5 -0.6
v 0 0.5 -0.6
v 0.1 0.5 -0.6
v 0.6 0.5 -0.6
v 0.7 0.5 -0.6
v -0.1 0.5 -0.7
v 0.3 0.5 -0.7
v 0.6 0.5 -0.7
v 0.7 0.5 -0.7
v 0.8 0.5 -0.7
v -0.7 0.5 -0.8
v 0.7 0.5 -0.8
v 0.8 0.5 -0.8

# faces
f 3/1/1 2/1/1 1/1/1
f 4/1/1 2/1/1 3/1/1
f 5/1/1 2/1/1 4/1/1
f 6/1/1 2/1/1 5/1/1
f 7/1/1 2/1/1 6/1/1
f 8/1/1 2/1/1 7/1/1
f 9/1/1 3/1/1 1/1/1
f 10/1/1 3/1/1 9/1/1
f 11/2/1 4/2/1 3/2/1
f 11/1/1 5/1/1 4/1/1
f 12/1/1 5/1/1 11/1/1
f 13/2/1 6/2/1 5/2/1
f 13/1/1 5/1/1 12/1/1
f 14/1/1 7/1/1 6/1/1
f 14/2/1 6/2/1 13/2/1
f 15/1/1 7/1/1 14/1/1
f 16/2/1 8/2/1 7/2/1
f 16/1/1 7/1/1 15/1/1
f 17/1/1 2/1/1 8/1/1
f 17/2/1 8/2/1 16/2/1
f 18/1/1 2/1/1 17/1/1
f 19/1/1 3/1/1 10/1/1
f 19/2/1 10/2/1 9/2/1
f 20/2/1 12/2/1 11/2/1
f 20/1/1 3/1/1 19/1/1
f 20/2/1 11/2/1 3/2/1
f 21/1/1 13/1/1 12/1/1
f 21/2/1 12/2/1 20/2/1
f 21/1/1 15/1/1 14/1/1
f 21/1/1 14/1/1 13/1/1
f 22/2/1 16/2/1 15/2/1
f 22/1/1 15/1/1 21/1/1
f 22/2/1 18/2/1 17/2/1
f 22/2/1 17/2/1 16/2/1
f 23/2/1 21/2/1 20/2/1
f 23/2/1 19/2/1 9/2/1
f 23/2/1 22/2/1 21/2/1
f 23/2/1 20/2/1 19/2/1
f 24/2/1 18/2/1 22/2/1
f 24/2/1 22/2/1 23/2/1
f 25/1/2 26/1/2 27/1/2
f 27/1/2 26/1/2 28/1/2
f 25/1/2 27/1/2 29/1/2
f 29/1/2 27/1/2 30/1/2
f 30/1/2 27/1/2 31/1/2
f 27/2/2 28/2/2 32/2/2
f 31/1/2 27/1/2 32/1/2
f 28/1/2 26/1/2 33/1/2
f 32/2/2 28/2/2 33/2/2
f 30/1/2 31/1/2 34/1/2
f 29/2/2 30/2/2 34/2/2
f 34/1/2 31/1/2 35/1/2
f 31/2/2 32/2/2 36/2/2
f 32/1/2 33/1/2 36/1/2
f 33/1/2 26/1/2 37/1/2
f 36/1/2 33/1/2 37/1/2
f 35/1/2 31/1/2 38/1/2
f 34/2/2 35/2/2 38/2/2
f 31/2/2 36/2/2 39/2/2
f 38/1/2 31/1/2 39/1/2
f 36/2/2 37/2/2 39/2/2
f 37/1/2 26/1/2 40/1/2
f 39/2/2 37/2/2 40/2/2
f 40/1/2 26/1/2 41/1/2
f 41/1/2 26/1/2 42/1/2
f 38/2/2 39/2/2 43/2/2
f 34/2/2 38/2/2 43/2/2
f 29/2/2 34/2/2 43/2/2
f 40/2/2 41/2/2 43/2/2
f 39/2/2 40/2/2 43/2/2
f 41/3/2 42/3/2 44/3/2
f 43/2/2 41/2/2 44/2/2
f 44/3/2 42/3/2 45/3/2
f 49/1/3 47/1/3 46/1/3
f 49/2/3 48/2/3 47/2/3
f 50/2/3 48/2/3 49/2/3
f 51/1/3 50/1/3 49/1/3
f 51/2/3 48/2/3 50/2/3
f 52/2/3 48/2/3 51/2/3
f 53/1/3 49/1/3 46/1/3
f 53/1/3 51/1/3 49/1/3
f 53/1/3 52/1/3 51/1/3
f 54/1/3 52/1/3 53/1/3
f 55/1/3 53/1/3 46/1/3
f 55/2/3 54/2/3 53/2/3
f 56/1/3 52/1/3 54/1/3
f 56/2/3 54/2/3 55/2/3
f 57/1/3 56/1/3 55/1/3
f 58/2/3 48/2/3 52/2/3
f 58/1/3 56/1/3 57/1/3
f 58/1/3 52/1/3 56/1/3
f 59/1/3 57/1/3 55/1/3
f 59/1/3 55/1/3 46/1/3
f 60/2/3 58/2/3 57/2/3
f 60/1/3 57/1/3 59/1/3
f 61/2/3 48/2/3 58/2/3
f 61/2/3 58/2/3 60/2/3
f 62/1/4 63/1/4 65/1/4
f 63/2/4 64/2/4 65/2/4
f 65/2/4 64/2/4 66/2/4
f 62/1/4 65/1/4 67/1/4
f 65/1/4 66/1/4 67/1/4
f 66/2/4 64/2/4 68/2/4
f 67/1/4 66/1/4 68/1/4
f 62/1/4 67/1/4 69/1/4
f 67/2/4 68/2/4 69/2/4
f 68/2/4 64/2/4 70/2/4
f 69/2/4 68/2/4 70/2/4
f 62/1/4 69/1/4 71/1/4
f 69/1/4 70/1/4 71/1/4
f 70/2/4 64/2/4 72/2/4
f 71/1/4 70/1/4 72/1/4
f 62/1/4 71/1/4 73/1/4
f 71/2/4 72/2/4 74/2/4
f 73/1/4 71/1/4 74/1/4
f 62/1/4 73/1/4 75/1/4
f 73/2/4 74/2/4 75/2/4
f 74/2/4 72/2/4 76/2/4
f 75/2/4 74/2/4 76/2/4
f 75/1/4 76/1/4 77/1/4
f 76/2/4 72/2/4 77/2/4
f 72/2/4 64/2/4 78/2/4
f 77/2/4 72/2/4 78/2/4
f 77/1/4 78/1/4 79/1/4
f 78/2/4 64/2/4 79/2/4
f 79/2/4 64/2/4 80/2/4
f 80/2/4 64/2/4 81/2/4
f 75/1/4 77/1/4 82/1/4
f 62/1/4 75/1/4 82/1/4
f 77/1/4 79/1/4 82/1/4
f 79/1/4 80/1/4 82/1/4
f 80/3/4 81/3/4 83/3/4
f 82/1/4 80/1/4 83/1/4
f 83/3/4 81/3/4 84/3/4
f 87/1/5 86/1/5 85/1/5
f 88/1/5 86/1/5 87/1/5
f 89/2/6 90/2/6 91/2/6
f 91/2/6 90/2/6 92/2/6
f 92/2/6 90/2/6 93/2/6
f 93/2/6 90/2/6 94/2/6
f 89/2/6 91/2/6 95/2/6
f 91/3/6 92/3/6 96/3/6
f 95/2/6 91/2/6 96/2/6
f 92/2/6 93/2/6 97/2/6
f 93/3/6 94/3/6 98/3/6
f 97/2/6 93/2/6 98/2/6
f 96/3/6 92/3/6 99/3/6
f 92/2/6 97/2/6 99/2/6
f 95/3/6 96/3/6 99/3/6
f 97/3/6 98/3/6 100/3/6
f 99/2/6 97/2/6 100/2/6
f 94/2/6 90/2/6 101/2/6
f 100/3/6 98/3/6 101/3/6
f 98/3/6 94/3/6 101/3/6
f 101/2/6 90/2/6 102/2/6
f 89/2/6 95/2/6 103/2/6
f 99/3/6 100/3/6 104/3/6
f 103/2/6 95/2/6 104/2/6
f 95/3/6 99/3/6 104/3/6
f 101/3/6 102/3/6 104/3/6
f 100/3/6 101/3/6 104/3/6
f 104/3/6 102/3/6 105/3/6
f 102/2/6 90/2/6 106/2/6
f 105/3/6 102/3/6 106/3/6
f 89/2/6 103/2/6 107/2/6
f 104/3/6 105/3/6 108/3/6
f 107/2/6 103/2/6 108/2/6
f 103/3/6 104/3/6 108/3/6
f 105/2/6 106/2/6 109/2/6
f 108/3/6 105/3/6 109/3/6
f 106/2/6 90/2/6 110/2/6
f 109/2/6 106/2/6 110/2/6
f 89/2/6 107/2/6 111/2/6
f 108/3/6 109/3/6 112/3/6
f 111/2/6 107/2/6 112/2/6
f 107/3/6 108/3/6 112/3/6
f 109/3/6 110/3/6 112/3/6
f 89/2/6 111/2/6 113/2/6
f 111/3/6 112/3/6 113/3/6
f 112/3/6 110/3/6 114/3/6
f 113/3/6 112/3/6 114/3/6
f 114/3/6 110/3/6 115/3/6
f 115/3/6 110/3/6 116/3/6
f 116/3/6 110/3/6 117/3/6
f 110/2/6 90/2/6 118/2/6
f 117/3/6 110/3/6 118/3/6
f 89/2/6 113/2/6 119/2/6
f 113/2/6 114/2/6 119/2/6
f 114/3/6 115/3/6 120/3/6
f 119/2/6 114/2/6 120/2/6
f 115/2/6 116/2/6 121/2/6
f 116/3/6 117/3/6 122/3/6
f 121/2/6 116/2/6 122/2/6
f 122/3/6 117/3/6 123/3/6
f 117/2/6 118/2/6 124/2/6
f 123/3/6 117/3/6 124/3/6
f 89/2/6 119/2/6 125/2/6
f 119/3/6 120/3/6 125/3/6
f 120/3/6 115/3/6 126/3/6
f 125/3/6 120/3/6 126/3/6
f 115/2/6 121/2/6 127/2/6
f 126/3/6 115/3/6 127/3/6
f 122/3/6 123/3/6 128/3/6
f 127/2/6 121/2/6 128/2/6
f 121/3/6 122/3/6 128/3/6
f 125/2/6 126/2/6 129/2/6
f 89/2/6 125/2/6 129/2/6
f 126/3/6 127/3/6 130/3/6
f 129/2/6 126/2/6 130/2/6
f 127/3/6 128/3/6 130/3/6
f 128/3/6 123/3/6 131/3/6
f 130/3/6 128/3/6 131/3/6
f 129/3/6 130/3/6 131/3/6
f 131/3/6 123/3/6 132/3/6
f 89/2/6 129/2/6 133/2/6
f 129/3/6 131/3/6 133/3/6
f 133/3/6 131/3/6 134/3/6
f 134/3/6 131/3/6 135/3/6
f 135/3/6 131/3/6 136/3/6
f 132/3/6 123/3/6 137/3/6
f 131/2/6 132/2/6 137/2/6
f 123/2/6 124/2/6 138/2/6
f 137/3/6 123/3/6 138/3/6
f 133/2/6 134/2/6 139/2/6
f 134/3/6 135/3/6 139/3/6
f 139/3/6 135/3/6 140/3/6
f 135/2/6 136/2/6 141/2/6
f 140/3/6 135/3/6 141/3/6
f 136/3/6 131/3/6 142/3/6
f 141/2/6 136/2/6 142/2/6
f 124/2/6 118/2/6 143/2/6
f 138/2/6 124/2/6 143/2/6
f 137/2/6 138/2/6 143/2/6
f 118/2/6 90/2/6 144/2/6
f 143/2/6 118/2/6 144/2/6
f 140/3/6 141/3/6 145/3/6
f 139/2/6 140/2/6 145/2/6
f 141/3/6 142/3/6 145/3/6
f 137/2/6 143/2/6 146/2/6
f 145/3/6 142/3/6 146/3/6
f 131/2/6 137/2/6 146/2/6
f 142/3/6 131/3/6 146/3/6
f 143/3/6 144/3/6 147/3/6
f 146/2/6 143/2/6 147/2/6
f 144/2/6 90/2/6 148/2/6
f 147/3/6 144/3/6 148/3/6
f 148/2/6 90/2/6 149/2/6
f 139/2/6 145/2/6 150/2/6
f 133/2/6 139/2/6 150/2/6
f 146/2/6 147/2/6 150/2/6
f 147/2/6 148/2/6 150/2/6
f 145/2/6 146/2/6 150/2/6
f 89/2/6 133/2/6 150/2/6
f 148/3/6 149/3/6 151/3/6
f 150/2/6 148/2/6 151/2/6
f 151/3/6 149/3/6 152/3/6
