# MagicaVoxel @ Ephtracy

# group
o 

# material
mtllib Player_2.mtl
usemtl palette

# normals
vn -1 0 0
vn 1 0 0
vn 0 0 1
vn 0 0 -1
vn 0 -1 0
vn 0 1 0

# texcoords
vt 0.685547 0.5
vt 0.732422 0.5
vt 0.880859 0.5
vt 0.943359 0.5
vt 0.974609 0.5

# verts
v -0.5 0 0.3
v -0.5 0 0.2
v -0.5 0 -0.2
v -0.5 0 -0.3
v -0.5 0.1 0.3
v -0.5 0.1 0.2
v -0.5 0.1 -0.2
v -0.5 0.1 -0.3
v -0.4 0 0.4
v -0.4 0 0.3
v -0.4 0 0.2
v -0.4 0 0.1
v -0.4 0 -0.1
v -0.4 0 -0.2
v -0.4 0 -0.3
v -0.4 0 -0.4
v -0.4 0.1 0.4
v -0.4 0.1 0.3
v -0.4 0.1 0.2
v -0.4 0.1 0.1
v -0.4 0.1 -0.1
v -0.4 0.1 -0.2
v -0.4 0.1 -0.3
v -0.4 0.1 -0.4
v -0.4 0.3 0.3
v -0.4 0.3 -0.3
v -0.4 0.4 0.3
v -0.4 0.4 -0.3
v -0.4 0.6 0.3
v -0.4 0.6 -0.3
v -0.3 0 0.1
v -0.3 0 -0.1
v -0.3 0.1 0.3
v -0.3 0.1 0.2
v -0.3 0.1 0.1
v -0.3 0.1 -0.1
v -0.3 0.1 -0.2
v -0.3 0.1 -0.3
v -0.3 0.3 0.3
v -0.3 0.3 0.2
v -0.3 0.3 -0.2
v -0.3 0.3 -0.3
v -0.3 0.6 0.3
v -0.3 0.6 0.2
v -0.3 0.6 0.1
v -0.3 0.6 -0.1
v -0.3 0.6 -0.2
v -0.3 0.6 -0.3
v -0.3 0.7 0.3
v -0.3 0.7 0.2
v -0.3 0.7 0.1
v -0.3 0.7 -0.1
v -0.3 0.7 -0.2
v -0.3 0.7 -0.3
v -0.3 0.8 0.3
v -0.3 0.8 0.1
v -0.3 0.8 -0.1
v -0.3 0.8 -0.3
v -0.1 0 0.3
v -0.1 0 -0.3
v -0.1 0.1 0.2
v -0.1 0.1 -0.2
v -0.1 0.2 0.3
v -0.1 0.2 0.2
v -0.1 0.2 -0.2
v -0.1 0.2 -0.3
v 0 0 0.4
v 0 0 0.3
v 0 0 -0.3
v 0 0 -0.4
v 0 0.1 0.4
v 0 0.1 0.3
v 0 0.1 -0.3
v 0 0.1 -0.4
v 0.1 0 0.5
v 0.1 0 0.4
v 0.1 0 -0.4
v 0.1 0 -0.5
v 0.1 0.1 0.5
v 0.1 0.1 0.4
v 0.1 0.1 -0.4
v 0.1 0.1 -0.5
v -0.3 0 0.4
v -0.3 0 0.3
v -0.3 0 -0.3
v -0.3 0 -0.4
v -0.3 0.1 0.4
v -0.3 0.1 0.3
v -0.3 0.1 -0.3
v -0.3 0.1 -0.4
v -0.2 0 0.3
v -0.2 0 -0.3
v -0.2 0.1 0.2
v -0.2 0.1 -0.2
v -0.2 0.2 0.3
v -0.2 0.2 0.2
v -0.2 0.2 -0.2
v -0.2 0.2 -0.3
v -0.1 0.6 0.3
v -0.1 0.6 -0.3
v -0.1 0.7 0.1
v -0.1 0.7 -0.1
v -0.1 0.8 0.3
v -0.1 0.8 0.1
v -0.1 0.8 -0.1
v -0.1 0.8 -0.3
v 0.1 0.5 0.3
v 0.1 0.5 -0.3
v 0.1 0.6 0.3
v 0.1 0.6 -0.3
v 0.2 0 0.5
v 0.2 0 0.4
v 0.2 0 -0.4
v 0.2 0 -0.5
v 0.2 0.1 0.5
v 0.2 0.1 0.4
v 0.2 0.1 -0.4
v 0.2 0.1 -0.5
v 0.2 0.4 0.3
v 0.2 0.4 -0.3
v 0.2 0.5 0.3
v 0.2 0.5 -0.3
v 0.3 0 0.4
v 0.3 0 0.3
v 0.3 0 -0.3
v 0.3 0 -0.4
v 0.3 0.1 0.4
v 0.3 0.1 0.3
v 0.3 0.1 -0.3
v 0.3 0.1 -0.4
v 0.3 0.3 0.3
v 0.3 0.3 -0.3
v 0.3 0.4 0.3
v 0.3 0.4 -0.3
v 0.4 0 0.3
v 0.4 0 -0.3
v 0.4 0.3 0.3
v 0.4 0.3 -0.3
v 0.1 0 0.5
v 0.1 0.1 0.5
v 0.2 0 0.5
v 0.2 0.1 0.5
v -0.4 0 0.4
v -0.4 0.1 0.4
v -0.3 0 0.4
v -0.3 0.1 0.4
v 0 0 0.4
v 0 0.1 0.4
v 0.1 0 0.4
v 0.1 0.1 0.4
v 0.2 0 0.4
v 0.2 0.1 0.4
v 0.3 0 0.4
v 0.3 0.1 0.4
v -0.5 0 0.3
v -0.5 0.1 0.3
v -0.4 0 0.3
v -0.4 0.1 0.3
v -0.4 0.3 0.3
v -0.4 0.4 0.3
v -0.4 0.6 0.3
v -0.3 0 0.3
v -0.3 0.1 0.3
v -0.3 0.3 0.3
v -0.3 0.4 0.3
v -0.3 0.5 0.3
v -0.3 0.6 0.3
v -0.3 0.7 0.3
v -0.3 0.8 0.3
v -0.2 0 0.3
v -0.2 0.2 0.3
v -0.2 0.4 0.3
v -0.2 0.5 0.3
v -0.2 0.6 0.3
v -0.2 0.7 0.3
v -0.1 0 0.3
v -0.1 0.2 0.3
v -0.1 0.6 0.3
v -0.1 0.8 0.3
v 0 0 0.3
v 0 0.1 0.3
v 0.1 0.5 0.3
v 0.1 0.6 0.3
v 0.2 0.4 0.3
v 0.2 0.5 0.3
v 0.3 0 0.3
v 0.3 0.1 0.3
v 0.3 0.3 0.3
v 0.3 0.4 0.3
v 0.4 0 0.3
v 0.4 0.3 0.3
v -0.2 0.1 0.2
v -0.2 0.2 0.2
v -0.1 0.1 0.2
v -0.1 0.2 0.2
v -0.4 0 -0.1
v -0.4 0.1 -0.1
v -0.3 0 -0.1
v -0.3 0.1 -0.1
v -0.3 0.7 -0.1
v -0.3 0.8 -0.1
v -0.1 0.7 -0.1
v -0.1 0.8 -0.1
v -0.5 0 -0.2
v -0.5 0.1 -0.2
v -0.4 0 -0.2
v -0.4 0.1 -0.2
v -0.5 0 0.2
v -0.5 0.1 0.2
v -0.4 0 0.2
v -0.4 0.1 0.2
v -0.4 0 0.1
v -0.4 0.1 0.1
v -0.3 0 0.1
v -0.3 0.1 0.1
v -0.3 0.7 0.1
v -0.3 0.8 0.1
v -0.1 0.7 0.1
v -0.1 0.8 0.1
v -0.2 0.1 -0.2
v -0.2 0.2 -0.2
v -0.1 0.1 -0.2
v -0.1 0.2 -0.2
v -0.5 0 -0.3
v -0.5 0.1 -0.3
v -0.4 0 -0.3
v -0.4 0.1 -0.3
v -0.4 0.3 -0.3
v -0.4 0.4 -0.3
v -0.4 0.6 -0.3
v -0.3 0 -0.3
v -0.3 0.1 -0.3
v -0.3 0.3 -0.3
v -0.3 0.4 -0.3
v -0.3 0.5 -0.3
v -0.3 0.6 -0.3
v -0.3 0.7 -0.3
v -0.3 0.8 -0.3
v -0.2 0 -0.3
v -0.2 0.2 -0.3
v -0.2 0.4 -0.3
v -0.2 0.5 -0.3
v -0.2 0.6 -0.3
v -0.2 0.7 -0.3
v -0.1 0 -0.3
v -0.1 0.2 -0.3
v -0.1 0.6 -0.3
v -0.1 0.8 -0.3
v 0 0 -0.3
v 0 0.1 -0.3
v 0.1 0.5 -0.3
v 0.1 0.6 -0.3
v 0.2 0.4 -0.3
v 0.2 0.5 -0.3
v 0.3 0 -0.3
v 0.3 0.1 -0.3
v 0.3 0.3 -0.3
v 0.3 0.4 -0.3
v 0.4 0 -0.3
v 0.4 0.3 -0.3
v -0.4 0 -0.4
v -0.4 0.1 -0.4
v -0.3 0 -0.4
v -0.3 0.1 -0.4
v 0 0 -0.4
v 0 0.1 -0.4
v 0.1 0 -0.4
v 0.1 0.1 -0.4
v 0.2 0 -0.4
v 0.2 0.1 -0.4
v 0.3 0 -0.4
v 0.3 0.1 -0.4
v 0.1 0 -0.5
v 0.1 0.1 -0.5
v 0.2 0 -0.5
v 0.2 0.1 -0.5
v 0.1 0 0.5
v 0.2 0 0.5
v -0.4 0 0.4
v -0.3 0 0.4
v 0 0 0.4
v 0.1 0 0.4
v 0.2 0 0.4
v 0.3 0 0.4
v -0.5 0 0.3
v -0.4 0 0.3
v -0.3 0 0.3
v -0.2 0 0.3
v -0.1 0 0.3
v 0 0 0.3
v 0.3 0 0.3
v 0.4 0 0.3
v -0.5 0 0.2
v -0.4 0 0.2
v -0.4 0 0.1
v -0.3 0 0.1
v -0.4 0 -0.1
v -0.3 0 -0.1
v -0.5 0 -0.2
v -0.4 0 -0.2
v -0.5 0 -0.3
v -0.4 0 -0.3
v -0.3 0 -0.3
v -0.2 0 -0.3
v -0.1 0 -0.3
v 0 0 -0.3
v 0.3 0 -0.3
v 0.4 0 -0.3
v -0.4 0 -0.4
v -0.3 0 -0.4
v 0 0 -0.4
v 0.1 0 -0.4
v 0.2 0 -0.4
v 0.3 0 -0.4
v 0.1 0 -0.5
v 0.2 0 -0.5
v -0.2 0.1 0.2
v -0.1 0.1 0.2
v -0.2 0.1 -0.2
v -0.1 0.1 -0.2
v -0.2 0.2 0.3
v -0.1 0.2 0.3
v -0.2 0.2 0.2
v -0.1 0.2 0.2
v -0.2 0.2 -0.2
v -0.1 0.2 -0.2
v -0.2 0.2 -0.3
v -0.1 0.2 -0.3
v -0.4 0.3 0.3
v -0.3 0.3 0.3
v -0.3 0.3 0.2
v -0.3 0.3 -0.2
v -0.4 0.3 -0.3
v -0.3 0.3 -0.3
v 0.1 0.1 0.5
v 0.2 0.1 0.5
v -0.4 0.1 0.4
v -0.3 0.1 0.4
v 0 0.1 0.4
v 0.1 0.1 0.4
v 0.2 0.1 0.4
v 0.3 0.1 0.4
v -0.5 0.1 0.3
v -0.4 0.1 0.3
v -0.3 0.1 0.3
v 0 0.1 0.3
v 0.3 0.1 0.3
v -0.5 0.1 0.2
v -0.4 0.1 0.2
v -0.3 0.1 0.2
v -0.4 0.1 0.1
v -0.3 0.1 0.1
v -0.4 0.1 -0.1
v -0.3 0.1 -0.1
v -0.5 0.1 -0.2
v -0.4 0.1 -0.2
v -0.3 0.1 -0.2
v -0.5 0.1 -0.3
v -0.4 0.1 -0.3
v -0.3 0.1 -0.3
v 0 0.1 -0.3
v 0.3 0.1 -0.3
v -0.4 0.1 -0.4
v -0.3 0.1 -0.4
v 0 0.1 -0.4
v 0.1 0.1 -0.4
v 0.2 0.1 -0.4
v 0.3 0.1 -0.4
v 0.1 0.1 -0.5
v 0.2 0.1 -0.5
v 0.3 0.3 0.3
v 0.4 0.3 0.3
v 0.3 0.3 -0.3
v 0.4 0.3 -0.3
v 0.2 0.4 0.3
v 0.3 0.4 0.3
v 0.2 0.4 -0.3
v 0.3 0.4 -0.3
v 0.1 0.5 0.3
v 0.2 0.5 0.3
v 0.1 0.5 -0.3
v 0.2 0.5 -0.3
v -0.4 0.6 0.3
v -0.3 0.6 0.3
v -0.1 0.6 0.3
v 0.1 0.6 0.3
v -0.3 0.6 0.2
v -0.3 0.6 0.1
v -0.3 0.6 -0.1
v -0.3 0.6 -0.2
v -0.4 0.6 -0.3
v -0.3 0.6 -0.3
v -0.1 0.6 -0.3
v 0.1 0.6 -0.3
v -0.3 0.7 0.1
v -0.1 0.7 0.1
v -0.3 0.7 -0.1
v -0.1 0.7 -0.1
v -0.3 0.8 0.3
v -0.1 0.8 0.3
v -0.3 0.8 0.1
v -0.1 0.8 0.1
v -0.3 0.8 -0.1
v -0.1 0.8 -0.1
v -0.3 0.8 -0.3
v -0.1 0.8 -0.3

# faces
f 5/4/1 2/4/1 1/4/1
f 6/4/1 2/4/1 5/4/1
f 7/4/1 4/4/1 3/4/1
f 8/4/1 4/4/1 7/4/1
f 17/4/1 10/4/1 9/4/1
f 18/4/1 10/4/1 17/4/1
f 19/4/1 12/4/1 11/4/1
f 20/4/1 12/4/1 19/4/1
f 21/4/1 14/4/1 13/4/1
f 22/4/1 14/4/1 21/4/1
f 23/4/1 16/4/1 15/4/1
f 24/4/1 16/4/1 23/4/1
f 27/2/1 26/2/1 25/2/1
f 28/2/1 26/2/1 27/2/1
f 29/4/1 28/4/1 27/4/1
f 30/4/1 28/4/1 29/4/1
f 35/4/1 32/4/1 31/4/1
f 36/4/1 32/4/1 35/4/1
f 39/4/1 34/4/1 33/4/1
f 40/2/1 35/2/1 34/2/1
f 40/4/1 34/4/1 39/4/1
f 40/2/1 36/2/1 35/2/1
f 40/2/1 37/2/1 36/2/1
f 41/4/1 38/4/1 37/4/1
f 41/2/1 37/2/1 40/2/1
f 42/4/1 38/4/1 41/4/1
f 49/1/1 44/1/1 43/1/1
f 50/5/1 45/5/1 44/5/1
f 50/1/1 44/1/1 49/1/1
f 51/4/1 46/4/1 45/4/1
f 51/5/1 45/5/1 50/5/1
f 52/5/1 47/5/1 46/5/1
f 52/4/1 46/4/1 51/4/1
f 53/1/1 48/1/1 47/1/1
f 53/5/1 47/5/1 52/5/1
f 54/1/1 48/1/1 53/1/1
f 55/4/1 50/4/1 49/4/1
f 55/4/1 51/4/1 50/4/1
f 56/4/1 51/4/1 55/4/1
f 57/4/1 54/4/1 53/4/1
f 57/4/1 53/4/1 52/4/1
f 58/4/1 54/4/1 57/4/1
f 61/4/1 60/4/1 59/4/1
f 62/4/1 60/4/1 61/4/1
f 63/4/1 61/4/1 59/4/1
f 64/4/1 61/4/1 63/4/1
f 65/4/1 60/4/1 62/4/1
f 66/4/1 60/4/1 65/4/1
f 71/4/1 68/4/1 67/4/1
f 72/4/1 68/4/1 71/4/1
f 73/4/1 70/4/1 69/4/1
f 74/4/1 70/4/1 73/4/1
f 79/4/1 76/4/1 75/4/1
f 80/4/1 76/4/1 79/4/1
f 81/4/1 78/4/1 77/4/1
f 82/4/1 78/4/1 81/4/1
f 83/4/2 84/4/2 87/4/2
f 87/4/2 84/4/2 88/4/2
f 85/4/2 86/4/2 89/4/2
f 89/4/2 86/4/2 90/4/2
f 91/4/2 92/4/2 93/4/2
f 93/4/2 92/4/2 94/4/2
f 91/4/2 93/4/2 95/4/2
f 95/4/2 93/4/2 96/4/2
f 94/4/2 92/4/2 97/4/2
f 97/4/2 92/4/2 98/4/2
f 99/4/2 100/4/2 101/4/2
f 101/4/2 100/4/2 102/4/2
f 99/4/2 101/4/2 103/4/2
f 103/4/2 101/4/2 104/4/2
f 102/4/2 100/4/2 105/4/2
f 105/4/2 100/4/2 106/4/2
f 107/4/2 108/4/2 109/4/2
f 109/4/2 108/4/2 110/4/2
f 111/4/2 112/4/2 115/4/2
f 115/4/2 112/4/2 116/4/2
f 113/4/2 114/4/2 117/4/2
f 117/4/2 114/4/2 118/4/2
f 119/4/2 120/4/2 121/4/2
f 121/4/2 120/4/2 122/4/2
f 123/4/2 124/4/2 127/4/2
f 127/4/2 124/4/2 128/4/2
f 125/4/2 126/4/2 129/4/2
f 129/4/2 126/4/2 130/4/2
f 131/4/2 132/4/2 133/4/2
f 133/4/2 132/4/2 134/4/2
f 135/4/2 136/4/2 137/4/2
f 137/4/2 136/4/2 138/4/2
f 141/4/3 140/4/3 139/4/3
f 142/4/3 140/4/3 141/4/3
f 145/4/3 144/4/3 143/4/3
f 146/4/3 144/4/3 145/4/3
f 149/4/3 148/4/3 147/4/3
f 150/4/3 148/4/3 149/4/3
f 153/4/3 152/4/3 151/4/3
f 154/4/3 152/4/3 153/4/3
f 157/4/3 156/4/3 155/4/3
f 158/4/3 156/4/3 157/4/3
f 164/2/3 160/2/3 159/2/3
f 165/4/3 161/4/3 160/4/3
f 165/2/3 160/2/3 164/2/3
f 166/4/3 161/4/3 165/4/3
f 167/4/3 161/4/3 166/4/3
f 170/4/3 164/4/3 163/4/3
f 170/4/3 163/4/3 162/4/3
f 170/4/3 165/4/3 164/4/3
f 171/4/3 165/4/3 170/4/3
f 172/3/3 166/3/3 165/3/3
f 172/4/3 165/4/3 171/4/3
f 173/4/3 167/4/3 166/4/3
f 173/3/3 166/3/3 172/3/3
f 174/1/3 168/1/3 167/1/3
f 174/4/3 167/4/3 173/4/3
f 175/4/3 169/4/3 168/4/3
f 175/1/3 168/1/3 174/1/3
f 177/4/3 174/4/3 173/4/3
f 177/4/3 175/4/3 174/4/3
f 177/4/3 173/4/3 172/4/3
f 177/4/3 172/4/3 171/4/3
f 178/4/3 175/4/3 177/4/3
f 179/4/3 169/4/3 175/4/3
f 179/4/3 175/4/3 178/4/3
f 180/4/3 178/4/3 177/4/3
f 180/4/3 177/4/3 176/4/3
f 181/4/3 178/4/3 180/4/3
f 182/4/3 178/4/3 181/4/3
f 183/4/3 178/4/3 182/4/3
f 184/4/3 182/4/3 181/4/3
f 185/4/3 182/4/3 184/4/3
f 187/4/3 184/4/3 181/4/3
f 188/4/3 184/4/3 187/4/3
f 189/4/3 184/4/3 188/4/3
f 190/4/3 187/4/3 186/4/3
f 190/4/3 188/4/3 187/4/3
f 191/4/3 188/4/3 190/4/3
f 194/4/3 193/4/3 192/4/3
f 195/4/3 193/4/3 194/4/3
f 198/4/3 197/4/3 196/4/3
f 199/4/3 197/4/3 198/4/3
f 202/4/3 201/4/3 200/4/3
f 203/4/3 201/4/3 202/4/3
f 206/4/3 205/4/3 204/4/3
f 207/4/3 205/4/3 206/4/3
f 208/4/4 209/4/4 210/4/4
f 210/4/4 209/4/4 211/4/4
f 212/4/4 213/4/4 214/4/4
f 214/4/4 213/4/4 215/4/4
f 216/4/4 217/4/4 218/4/4
f 218/4/4 217/4/4 219/4/4
f 220/4/4 221/4/4 222/4/4
f 222/4/4 221/4/4 223/4/4
f 224/4/4 225/4/4 226/4/4
f 226/4/4 225/4/4 227/4/4
f 228/2/4 229/2/4 233/2/4
f 229/4/4 230/4/4 234/4/4
f 233/2/4 229/2/4 234/2/4
f 234/4/4 230/4/4 235/4/4
f 235/4/4 230/4/4 236/4/4
f 232/4/4 233/4/4 239/4/4
f 231/4/4 232/4/4 239/4/4
f 233/4/4 234/4/4 239/4/4
f 239/4/4 234/4/4 240/4/4
f 234/3/4 235/3/4 241/3/4
f 240/4/4 234/4/4 241/4/4
f 235/4/4 236/4/4 242/4/4
f 241/3/4 235/3/4 242/3/4
f 236/1/4 237/1/4 243/1/4
f 242/4/4 236/4/4 243/4/4
f 237/4/4 238/4/4 244/4/4
f 243/1/4 237/1/4 244/1/4
f 242/4/4 243/4/4 246/4/4
f 243/4/4 244/4/4 246/4/4
f 241/4/4 242/4/4 246/4/4
f 240/4/4 241/4/4 246/4/4
f 246/4/4 244/4/4 247/4/4
f 244/4/4 238/4/4 248/4/4
f 247/4/4 244/4/4 248/4/4
f 246/4/4 247/4/4 249/4/4
f 245/4/4 246/4/4 249/4/4
f 249/4/4 247/4/4 250/4/4
f 250/4/4 247/4/4 251/4/4
f 251/4/4 247/4/4 252/4/4
f 250/4/4 251/4/4 253/4/4
f 253/4/4 251/4/4 254/4/4
f 250/4/4 253/4/4 256/4/4
f 256/4/4 253/4/4 257/4/4
f 257/4/4 253/4/4 258/4/4
f 255/4/4 256/4/4 259/4/4
f 256/4/4 257/4/4 259/4/4
f 259/4/4 257/4/4 260/4/4
f 261/4/4 262/4/4 263/4/4
f 263/4/4 262/4/4 264/4/4
f 265/4/4 266/4/4 267/4/4
f 267/4/4 266/4/4 268/4/4
f 269/4/4 270/4/4 271/4/4
f 271/4/4 270/4/4 272/4/4
f 273/4/4 274/4/4 275/4/4
f 275/4/4 274/4/4 276/4/4
f 282/4/5 278/4/5 277/4/5
f 283/4/5 278/4/5 282/4/5
f 286/4/5 280/4/5 279/4/5
f 287/4/5 280/4/5 286/4/5
f 290/4/5 284/4/5 283/4/5
f 290/4/5 282/4/5 281/4/5
f 290/4/5 283/4/5 282/4/5
f 291/4/5 284/4/5 290/4/5
f 293/4/5 288/4/5 287/4/5
f 293/4/5 287/4/5 286/4/5
f 293/4/5 286/4/5 285/4/5
f 294/4/5 288/4/5 293/4/5
f 295/4/5 288/4/5 294/4/5
f 296/4/5 288/4/5 295/4/5
f 298/4/5 288/4/5 296/4/5
f 300/4/5 298/4/5 297/4/5
f 301/4/5 300/4/5 299/4/5
f 302/4/5 298/4/5 300/4/5
f 302/4/5 300/4/5 301/4/5
f 303/4/5 288/4/5 298/4/5
f 303/4/5 298/4/5 302/4/5
f 304/4/5 288/4/5 303/4/5
f 305/4/5 292/4/5 291/4/5
f 305/4/5 291/4/5 290/4/5
f 305/4/5 290/4/5 289/4/5
f 306/4/5 292/4/5 305/4/5
f 307/4/5 292/4/5 306/4/5
f 308/4/5 292/4/5 307/4/5
f 309/4/5 303/4/5 302/4/5
f 310/4/5 303/4/5 309/4/5
f 311/4/5 307/4/5 306/4/5
f 312/4/5 307/4/5 311/4/5
f 313/4/5 307/4/5 312/4/5
f 314/4/5 307/4/5 313/4/5
f 315/4/5 313/4/5 312/4/5
f 316/4/5 313/4/5 315/4/5
f 319/4/5 318/4/5 317/4/5
f 320/4/5 318/4/5 319/4/5
f 323/4/5 322/4/5 321/4/5
f 324/4/5 322/4/5 323/4/5
f 327/4/5 326/4/5 325/4/5
f 328/4/5 326/4/5 327/4/5
f 331/2/5 330/2/5 329/2/5
f 332/2/5 331/2/5 329/2/5
f 333/2/5 332/2/5 329/2/5
f 334/2/5 332/2/5 333/2/5
f 335/4/6 336/4/6 340/4/6
f 340/4/6 336/4/6 341/4/6
f 337/4/6 338/4/6 344/4/6
f 344/4/6 338/4/6 345/4/6
f 341/4/6 342/4/6 346/4/6
f 339/4/6 340/4/6 346/4/6
f 340/4/6 341/4/6 346/4/6
f 346/4/6 342/4/6 347/4/6
f 344/4/6 345/4/6 348/4/6
f 343/4/6 344/4/6 348/4/6
f 348/4/6 345/4/6 349/4/6
f 349/4/6 345/4/6 350/4/6
f 349/4/6 350/4/6 351/4/6
f 351/4/6 350/4/6 352/4/6
f 353/4/6 354/4/6 356/4/6
f 356/4/6 354/4/6 357/4/6
f 355/4/6 356/4/6 358/4/6
f 356/4/6 357/4/6 358/4/6
f 358/4/6 357/4/6 359/4/6
f 359/4/6 357/4/6 360/4/6
f 359/4/6 360/4/6 363/4/6
f 363/4/6 360/4/6 364/4/6
f 361/4/6 362/4/6 365/4/6
f 365/4/6 362/4/6 366/4/6
f 366/4/6 362/4/6 367/4/6
f 367/4/6 362/4/6 368/4/6
f 366/4/6 367/4/6 369/4/6
f 369/4/6 367/4/6 370/4/6
f 371/4/6 372/4/6 373/4/6
f 373/4/6 372/4/6 374/4/6
f 375/4/6 376/4/6 377/4/6
f 377/4/6 376/4/6 378/4/6
f 379/4/6 380/4/6 381/4/6
f 381/4/6 380/4/6 382/4/6
f 383/4/6 384/4/6 387/4/6
f 383/4/6 387/4/6 388/4/6
f 383/4/6 388/4/6 389/4/6
f 383/4/6 389/4/6 390/4/6
f 383/4/6 390/4/6 391/4/6
f 391/4/6 390/4/6 392/4/6
f 385/4/6 386/4/6 393/4/6
f 393/4/6 386/4/6 394/4/6
f 395/4/6 396/4/6 397/4/6
f 397/4/6 396/4/6 398/4/6
f 399/4/6 400/4/6 401/4/6
f 401/4/6 400/4/6 402/4/6
f 403/4/6 404/4/6 405/4/6
f 405/4/6 404/4/6 406/4/6
