# MagicaVoxel @ Ephtracy

# group
o 

# material
mtllib Player_3.mtl
usemtl palette

# normals
vn -1 0 0
vn 1 0 0
vn 0 0 1
vn 0 0 -1
vn 0 -1 0
vn 0 1 0

# texcoords
vt 0.873047 0.5
vt 0.923828 0.5
vt 0.951172 0.5
vt 0.978516 0.5

# verts
v -0.5 0.6 0.2
v -0.5 0.6 -0.2
v -0.5 0.7 0.2
v -0.5 0.7 0.1
v -0.5 0.7 -0.1
v -0.5 0.7 -0.2
v -0.5 0.8 0.1
v -0.5 0.8 -0.1
v -0.4 0.4 0.4
v -0.4 0.4 -0.4
v -0.4 0.5 0.5
v -0.4 0.5 0.4
v -0.4 0.5 -0.4
v -0.4 0.5 -0.5
v -0.4 0.6 0.2
v -0.4 0.6 -0.2
v -0.4 0.7 0.5
v -0.4 0.7 0.4
v -0.4 0.7 0.2
v -0.4 0.7 0.1
v -0.4 0.7 -0.1
v -0.4 0.7 -0.2
v -0.4 0.7 -0.4
v -0.4 0.7 -0.5
v -0.4 0.8 0.5
v -0.4 0.8 0.4
v -0.4 0.8 0.3
v -0.4 0.8 0.1
v -0.4 0.8 -0.1
v -0.4 0.8 -0.3
v -0.4 0.8 -0.4
v -0.4 0.8 -0.5
v -0.4 0.9 0.4
v -0.4 0.9 0.3
v -0.4 0.9 -0.3
v -0.4 0.9 -0.4
v -0.4 1.1 0.5
v -0.4 1.1 0.4
v -0.4 1.1 -0.4
v -0.4 1.1 -0.5
v -0.4 1.2 0.4
v -0.4 1.2 -0.4
v -0.3 1.1 0.5
v -0.3 1.1 0.4
v -0.3 1.1 -0.4
v -0.3 1.1 -0.5
v -0.3 1.2 0.5
v -0.3 1.2 0.4
v -0.3 1.2 -0.4
v -0.3 1.2 -0.5
v -0.2 0.1 0.3
v -0.2 0.1 0.2
v -0.2 0.1 -0.2
v -0.2 0.1 -0.3
v -0.2 0.3 0.3
v -0.2 0.3 0.2
v -0.2 0.3 -0.2
v -0.2 0.4 0.3
v -0.2 0.4 0.2
v -0.2 0.4 -0.3
v -0.1 0 0.3
v -0.1 0 0.1
v -0.1 0 -0.1
v -0.1 0 -0.3
v -0.1 0.1 0.3
v -0.1 0.1 0.2
v -0.1 0.1 0.1
v -0.1 0.1 -0.1
v -0.1 0.1 -0.2
v -0.1 0.1 -0.3
v -0.1 0.2 0.4
v -0.1 0.2 0.3
v -0.1 0.2 -0.3
v -0.1 0.2 -0.4
v -0.1 0.3 0.4
v -0.1 0.3 0.3
v -0.1 0.3 -0.3
v -0.1 0.3 -0.4
v 0 0.9 0.6
v 0 0.9 0.5
v 0 0.9 -0.5
v 0 0.9 -0.6
v 0 1 0.7
v 0 1 0.6
v 0 1 0.5
v 0 1 -0.5
v 0 1 -0.6
v 0 1 -0.7
v 0 1.1 0.7
v 0 1.1 0.6
v 0 1.1 0.5
v 0 1.1 -0.5
v 0 1.1 -0.6
v 0 1.1 -0.7
v 0 1.2 0.5
v 0 1.2 0.3
v 0 1.2 0.2
v 0 1.2 -0.2
v 0 1.2 -0.3
v 0 1.2 -0.5
v 0 1.4 0.6
v 0 1.4 0.5
v 0 1.4 -0.5
v 0 1.4 -0.6
v 0 1.5 0.7
v 0 1.5 0.6
v 0 1.5 0.5
v 0 1.5 0.4
v 0 1.5 -0.4
v 0 1.5 -0.5
v 0 1.5 -0.6
v 0 1.5 -0.7
v 0 1.6 0.6
v 0 1.6 0.5
v 0 1.6 0.4
v 0 1.6 0.3
v 0 1.6 -0.3
v 0 1.6 -0.4
v 0 1.6 -0.5
v 0 1.6 -0.6
v 0 1.7 0.5
v 0 1.7 0.4
v 0 1.7 -0.4
v 0 1.7 -0.5
v 0 1.8 0.4
v 0 1.8 0.2
v 0 1.8 -0.2
v 0 1.8 -0.4
v 0.3 0.2 -5.96046e-08
v 0.3 0.2 -0.1
v 0.3 0.3 -5.96046e-08
v 0.3 0.3 -0.1
v 0 0.2 0.4
v 0 0.2 0.3
v 0 0.2 -0.3
v 0 0.2 -0.4
v 0 0.3 0.4
v 0 0.3 0.3
v 0 0.3 -0.3
v 0 0.3 -0.4
v 0.1 0 0.3
v 0.1 0 0.1
v 0.1 0 -0.1
v 0.1 0 -0.3
v 0.1 0.1 0.3
v 0.1 0.1 0.1
v 0.1 0.1 -0.1
v 0.1 0.1 -0.2
v 0.1 0.1 -0.3
v 0.2 0.1 0.3
v 0.2 0.1 0.1
v 0.2 0.1 -5.96046e-08
v 0.2 0.1 -0.2
v 0.2 0.1 -0.3
v 0.2 0.2 0.1
v 0.2 0.2 -5.96046e-08
v 0.2 0.2 -0.2
v 0.2 0.2 -0.3
v 0.2 0.3 0.3
v 0.2 0.3 0.2
v 0.2 0.4 0.3
v 0.2 0.4 0.2
v 0.2 0.4 -0.3
v 0.2 0.9 0.6
v 0.2 0.9 0.5
v 0.2 0.9 -0.5
v 0.2 0.9 -0.6
v 0.2 1 0.7
v 0.2 1 0.6
v 0.2 1 0.5
v 0.2 1 -0.5
v 0.2 1 -0.6
v 0.2 1 -0.7
v 0.2 1.1 0.7
v 0.2 1.1 0.6
v 0.2 1.1 0.5
v 0.2 1.1 -0.5
v 0.2 1.1 -0.6
v 0.2 1.1 -0.7
v 0.2 1.2 0.5
v 0.2 1.2 0.3
v 0.2 1.2 0.2
v 0.2 1.2 -0.2
v 0.2 1.2 -0.3
v 0.2 1.2 -0.5
v 0.2 1.4 0.6
v 0.2 1.4 0.5
v 0.2 1.4 -0.5
v 0.2 1.4 -0.6
v 0.2 1.5 0.7
v 0.2 1.5 0.6
v 0.2 1.5 0.5
v 0.2 1.5 0.4
v 0.2 1.5 -0.4
v 0.2 1.5 -0.5
v 0.2 1.5 -0.6
v 0.2 1.5 -0.7
v 0.2 1.6 0.6
v 0.2 1.6 0.5
v 0.2 1.6 0.4
v 0.2 1.6 0.3
v 0.2 1.6 -0.3
v 0.2 1.6 -0.4
v 0.2 1.6 -0.5
v 0.2 1.6 -0.6
v 0.2 1.7 0.5
v 0.2 1.7 0.4
v 0.2 1.7 -0.4
v 0.2 1.7 -0.5
v 0.2 1.8 0.4
v 0.2 1.8 0.2
v 0.2 1.8 -0.2
v 0.2 1.8 -0.4
v 0.3 0.1 0.1
v 0.3 0.1 -5.96046e-08
v 0.3 0.2 0.1
v 0.3 0.2 -5.96046e-08
v 0.3 1.1 0.5
v 0.3 1.1 0.4
v 0.3 1.1 -0.4
v 0.3 1.1 -0.5
v 0.3 1.2 0.5
v 0.3 1.2 0.4
v 0.3 1.2 -0.4
v 0.3 1.2 -0.5
v 0.4 0.2 -5.96046e-08
v 0.4 0.2 -0.1
v 0.4 0.3 -5.96046e-08
v 0.4 0.3 -0.1
v 0.4 0.4 0.4
v 0.4 0.4 -0.4
v 0.4 0.5 0.5
v 0.4 0.5 0.4
v 0.4 0.5 -0.4
v 0.4 0.5 -0.5
v 0.4 0.6 -0.2
v 0.4 0.6 -0.3
v 0.4 0.7 -0.2
v 0.4 0.7 -0.3
v 0.4 0.8 0.2
v 0.4 0.8 0.1
v 0.4 0.9 0.2
v 0.4 0.9 0.1
v 0.4 1.1 0.5
v 0.4 1.1 0.4
v 0.4 1.1 -0.4
v 0.4 1.1 -0.5
v 0.4 1.2 0.4
v 0.4 1.2 -0.4
v 0 1 0.7
v 0 1.1 0.7
v 0 1.5 0.7
v 0.2 1 0.7
v 0.2 1.1 0.7
v 0.2 1.5 0.7
v 0 0.9 0.6
v 0 1 0.6
v 0 1.5 0.6
v 0 1.6 0.6
v 0.2 0.9 0.6
v 0.2 1 0.6
v 0.2 1.5 0.6
v 0.2 1.6 0.6
v -0.4 0.5 0.5
v -0.4 0.7 0.5
v -0.4 0.8 0.5
v -0.4 1.1 0.5
v -0.3 1.1 0.5
v -0.3 1.2 0.5
v -0.2 0.5 0.5
v -0.2 0.6 0.5
v -0.2 0.7 0.5
v -0.2 0.8 0.5
v -0.1 0.5 0.5
v -0.1 0.6 0.5
v 0 0.9 0.5
v 0 1 0.5
v 0 1.1 0.5
v 0 1.2 0.5
v 0 1.6 0.5
v 0 1.7 0.5
v 0.2 0.7 0.5
v 0.2 0.8 0.5
v 0.2 0.9 0.5
v 0.2 1 0.5
v 0.2 1.1 0.5
v 0.2 1.2 0.5
v 0.2 1.6 0.5
v 0.2 1.7 0.5
v 0.3 0.7 0.5
v 0.3 0.8 0.5
v 0.3 1.1 0.5
v 0.3 1.2 0.5
v 0.4 0.5 0.5
v 0.4 1.1 0.5
v -0.4 0.4 0.4
v -0.4 0.5 0.4
v -0.4 1.1 0.4
v -0.4 1.2 0.4
v -0.3 1.1 0.4
v -0.3 1.2 0.4
v -0.2 0.5 0.4
v -0.1 0.2 0.4
v -0.1 0.3 0.4
v -0.1 0.5 0.4
v 0 0.2 0.4
v 0 0.3 0.4
v 0 1.7 0.4
v 0 1.8 0.4
v 0.2 1.7 0.4
v 0.2 1.8 0.4
v 0.3 1.1 0.4
v 0.3 1.2 0.4
v 0.4 0.4 0.4
v 0.4 0.5 0.4
v 0.4 1.1 0.4
v 0.4 1.2 0.4
v -0.2 0.1 0.3
v -0.2 0.3 0.3
v -0.2 0.4 0.3
v -0.1 0 0.3
v -0.1 0.1 0.3
v -0.1 0.2 0.3
v -0.1 0.3 0.3
v -0.1 0.4 0.3
v 0 0.2 0.3
v 0 0.3 0.3
v 0.1 0 0.3
v 0.1 0.1 0.3
v 0.1 0.3 0.3
v 0.1 0.4 0.3
v 0.2 0.1 0.3
v 0.2 0.3 0.3
v 0.2 0.4 0.3
v -0.5 0.6 0.2
v -0.5 0.7 0.2
v -0.4 0.6 0.2
v -0.4 0.7 0.2
v -0.5 0.7 0.1
v -0.5 0.8 0.1
v -0.4 0.7 0.1
v -0.4 0.8 0.1
v 0.2 0.1 0.1
v 0.2 0.2 0.1
v 0.3 0.1 0.1
v 0.3 0.2 0.1
v 0.3 0.2 -5.96046e-08
v 0.3 0.3 -5.96046e-08
v 0.4 0.2 -5.96046e-08
v 0.4 0.3 -5.96046e-08
v -0.1 0 -0.1
v -0.1 0.1 -0.1
v 0.1 0 -0.1
v 0.1 0.1 -0.1
v 0 1.2 -0.2
v 0 1.8 -0.2
v 0.2 1.2 -0.2
v 0.2 1.8 -0.2
v 0 1.2 0.2
v 0 1.8 0.2
v 0.2 1.2 0.2
v 0.2 1.8 0.2
v -0.1 0 0.1
v -0.1 0.1 0.1
v 0.1 0 0.1
v 0.1 0.1 0.1
v 0.2 0.1 -5.96046e-08
v 0.2 0.2 -5.96046e-08
v 0.3 0.1 -5.96046e-08
v 0.3 0.2 -5.96046e-08
v -0.5 0.7 -0.1
v -0.5 0.8 -0.1
v -0.4 0.7 -0.1
v -0.4 0.8 -0.1
v 0.3 0.2 -0.1
v 0.3 0.3 -0.1
v 0.4 0.2 -0.1
v 0.4 0.3 -0.1
v -0.5 0.6 -0.2
v -0.5 0.7 -0.2
v -0.4 0.6 -0.2
v -0.4 0.7 -0.2
v -0.2 0.1 -0.3
v -0.2 0.4 -0.3
v -0.1 0 -0.3
v -0.1 0.1 -0.3
v -0.1 0.2 -0.3
v -0.1 0.3 -0.3
v 0 0.2 -0.3
v 0 0.3 -0.3
v 0.1 0 -0.3
v 0.1 0.1 -0.3
v 0.1 0.2 -0.3
v 0.2 0.1 -0.3
v 0.2 0.2 -0.3
v 0.2 0.4 -0.3
v -0.4 0.4 -0.4
v -0.4 0.5 -0.4
v -0.4 1.1 -0.4
v -0.4 1.2 -0.4
v -0.3 1.1 -0.4
v -0.3 1.2 -0.4
v -0.1 0.2 -0.4
v -0.1 0.3 -0.4
v 0 0.2 -0.4
v 0 0.3 -0.4
v 0 1.7 -0.4
v 0 1.8 -0.4
v 0.1 0.5 -0.4
v 0.2 0.5 -0.4
v 0.2 1.7 -0.4
v 0.2 1.8 -0.4
v 0.3 1.1 -0.4
v 0.3 1.2 -0.4
v 0.4 0.4 -0.4
v 0.4 0.5 -0.4
v 0.4 1.1 -0.4
v 0.4 1.2 -0.4
v -0.4 0.5 -0.5
v -0.4 0.7 -0.5
v -0.4 0.8 -0.5
v -0.4 1.1 -0.5
v -0.3 0.7 -0.5
v -0.3 0.8 -0.5
v -0.3 1.1 -0.5
v -0.3 1.2 -0.5
v -0.2 0.9 -0.5
v -0.2 1 -0.5
v -0.1 0.9 -0.5
v -0.1 1 -0.5
v 0 0.9 -0.5
v 0 1 -0.5
v 0 1.1 -0.5
v 0 1.2 -0.5
v 0 1.6 -0.5
v 0 1.7 -0.5
v 0.1 0.5 -0.5
v 0.1 0.6 -0.5
v 0.2 0.5 -0.5
v 0.2 0.6 -0.5
v 0.2 0.9 -0.5
v 0.2 1 -0.5
v 0.2 1.1 -0.5
v 0.2 1.2 -0.5
v 0.2 1.6 -0.5
v 0.2 1.7 -0.5
v 0.3 1.1 -0.5
v 0.3 1.2 -0.5
v 0.4 0.5 -0.5
v 0.4 1.1 -0.5
v 0 0.9 -0.6
v 0 1 -0.6
v 0 1.5 -0.6
v 0 1.6 -0.6
v 0.2 0.9 -0.6
v 0.2 1 -0.6
v 0.2 1.5 -0.6
v 0.2 1.6 -0.6
v 0 1 -0.7
v 0 1.1 -0.7
v 0 1.5 -0.7
v 0.2 1 -0.7
v 0.2 1.1 -0.7
v 0.2 1.5 -0.7
v -0.1 0 0.3
v 0.1 0 0.3
v -0.1 0 0.1
v 0.1 0 0.1
v -0.1 0 -0.1
v 0.1 0 -0.1
v -0.1 0 -0.3
v 0.1 0 -0.3
v -0.2 0.1 0.3
v -0.1 0.1 0.3
v 0.1 0.1 0.3
v 0.2 0.1 0.3
v -0.2 0.1 0.2
v -0.1 0.1 0.2
v -0.1 0.1 0.1
v 0.1 0.1 0.1
v 0.2 0.1 0.1
v 0.3 0.1 0.1
v 0.2 0.1 -5.96046e-08
v 0.3 0.1 -5.96046e-08
v -0.1 0.1 -0.1
v 0.1 0.1 -0.1
v -0.2 0.1 -0.2
v -0.1 0.1 -0.2
v 0.1 0.1 -0.2
v 0.2 0.1 -0.2
v -0.2 0.1 -0.3
v -0.1 0.1 -0.3
v 0.1 0.1 -0.3
v 0.2 0.1 -0.3
v -0.1 0.2 0.4
v 0 0.2 0.4
v -0.1 0.2 0.3
v 0 0.2 0.3
v 0.3 0.2 -5.96046e-08
v 0.4 0.2 -5.96046e-08
v 0.3 0.2 -0.1
v 0.4 0.2 -0.1
v -0.1 0.2 -0.3
v 0 0.2 -0.3
v -0.1 0.2 -0.4
v 0 0.2 -0.4
v -0.4 0.4 0.4
v 0.4 0.4 0.4
v -0.2 0.4 0.3
v -0.1 0.4 0.3
v 0.1 0.4 0.3
v 0.2 0.4 0.3
v -0.2 0.4 0.2
v 0.2 0.4 0.2
v -0.2 0.4 -0.3
v 0.2 0.4 -0.3
v -0.4 0.4 -0.4
v 0.4 0.4 -0.4
v -0.4 0.5 0.5
v -0.2 0.5 0.5
v -0.1 0.5 0.5
v 0.4 0.5 0.5
v -0.4 0.5 0.4
v -0.2 0.5 0.4
v -0.1 0.5 0.4
v 0.4 0.5 0.4
v -0.4 0.5 -0.4
v 0.1 0.5 -0.4
v 0.2 0.5 -0.4
v 0.4 0.5 -0.4
v -0.4 0.5 -0.5
v 0.1 0.5 -0.5
v 0.2 0.5 -0.5
v 0.4 0.5 -0.5
v -0.5 0.6 0.2
v -0.4 0.6 0.2
v -0.5 0.6 -0.2
v -0.4 0.6 -0.2
v 0 0.9 0.6
v 0.2 0.9 0.6
v 0 0.9 0.5
v 0.2 0.9 0.5
v 0 0.9 -0.5
v 0.2 0.9 -0.5
v 0 0.9 -0.6
v 0.2 0.9 -0.6
v 0 1 0.7
v 0.2 1 0.7
v 0 1 0.6
v 0.2 1 0.6
v 0 1 -0.6
v 0.2 1 -0.6
v 0 1 -0.7
v 0.2 1 -0.7
v 0.2 0.2 0.1
v 0.3 0.2 0.1
v 0.2 0.2 -5.96046e-08
v 0.3 0.2 -5.96046e-08
v -0.1 0.3 0.4
v 0 0.3 0.4
v -0.1 0.3 0.3
v 0 0.3 0.3
v 0.3 0.3 -5.96046e-08
v 0.4 0.3 -5.96046e-08
v 0.3 0.3 -0.1
v 0.4 0.3 -0.1
v -0.1 0.3 -0.3
v 0 0.3 -0.3
v -0.1 0.3 -0.4
v 0 0.3 -0.4
v -0.5 0.7 0.2
v -0.4 0.7 0.2
v -0.5 0.7 0.1
v -0.4 0.7 0.1
v -0.5 0.7 -0.1
v -0.4 0.7 -0.1
v -0.5 0.7 -0.2
v -0.4 0.7 -0.2
v -0.5 0.8 0.1
v -0.4 0.8 0.1
v -0.5 0.8 -0.1
v -0.4 0.8 -0.1
v -0.4 1.1 0.5
v -0.3 1.1 0.5
v 0.3 1.1 0.5
v 0.4 1.1 0.5
v -0.4 1.1 0.4
v -0.3 1.1 0.4
v 0.3 1.1 0.4
v 0.4 1.1 0.4
v -0.4 1.1 -0.4
v -0.3 1.1 -0.4
v 0.3 1.1 -0.4
v 0.4 1.1 -0.4
v -0.4 1.1 -0.5
v -0.3 1.1 -0.5
v 0.3 1.1 -0.5
v 0.4 1.1 -0.5
v -0.3 1.2 0.5
v 0 1.2 0.5
v 0.2 1.2 0.5
v 0.3 1.2 0.5
v -0.4 1.2 0.4
v -0.3 1.2 0.4
v 0.3 1.2 0.4
v 0.4 1.2 0.4
v 0 1.2 0.3
v 0.2 1.2 0.3
v 0 1.2 0.2
v 0.2 1.2 0.2
v 0 1.2 -0.2
v 0.2 1.2 -0.2
v 0 1.2 -0.3
v 0.2 1.2 -0.3
v -0.4 1.2 -0.4
v -0.3 1.2 -0.4
v 0.3 1.2 -0.4
v 0.4 1.2 -0.4
v -0.3 1.2 -0.5
v 0 1.2 -0.5
v 0.2 1.2 -0.5
v 0.3 1.2 -0.5
v 0 1.5 0.7
v 0.2 1.5 0.7
v 0 1.5 0.6
v 0.2 1.5 0.6
v 0 1.5 -0.6
v 0.2 1.5 -0.6
v 0 1.5 -0.7
v 0.2 1.5 -0.7
v 0 1.6 0.6
v 0.2 1.6 0.6
v 0 1.6 0.5
v 0.2 1.6 0.5
v 0 1.6 -0.5
v 0.2 1.6 -0.5
v 0 1.6 -0.6
v 0.2 1.6 -0.6
v 0 1.7 0.5
v 0.2 1.7 0.5
v 0 1.7 0.4
v 0.2 1.7 0.4
v 0 1.7 -0.4
v 0.2 1.7 -0.4
v 0 1.7 -0.5
v 0.2 1.7 -0.5
v 0 1.8 0.4
v 0.2 1.8 0.4
v 0 1.8 0.2
v 0.2 1.8 0.2
v 0 1.8 -0.2
v 0.2 1.8 -0.2
v 0 1.8 -0.4
v 0.2 1.8 -0.4

# faces
f 3/2/1 2/2/1 1/2/1
f 4/2/1 2/2/1 3/2/1
f 5/2/1 2/2/1 4/2/1
f 6/2/1 2/2/1 5/2/1
f 7/2/1 5/2/1 4/2/1
f 8/2/1 5/2/1 7/2/1
f 12/4/1 10/4/1 9/4/1
f 13/4/1 10/4/1 12/4/1
f 15/4/1 12/4/1 11/4/1
f 15/4/1 14/4/1 13/4/1
f 15/4/1 13/4/1 12/4/1
f 16/4/1 14/4/1 15/4/1
f 17/4/1 15/4/1 11/4/1
f 18/4/1 15/4/1 17/4/1
f 19/4/1 15/4/1 18/4/1
f 22/4/1 14/4/1 16/4/1
f 23/4/1 14/4/1 22/4/1
f 24/4/1 14/4/1 23/4/1
f 25/1/1 18/1/1 17/1/1
f 26/4/1 20/4/1 19/4/1
f 26/1/1 18/1/1 25/1/1
f 26/4/1 19/4/1 18/4/1
f 27/4/1 20/4/1 26/4/1
f 28/4/1 20/4/1 27/4/1
f 29/4/1 22/4/1 21/4/1
f 29/4/1 23/4/1 22/4/1
f 30/4/1 23/4/1 29/4/1
f 31/1/1 24/1/1 23/1/1
f 31/4/1 23/4/1 30/4/1
f 32/1/1 24/1/1 31/1/1
f 33/3/1 27/3/1 26/3/1
f 33/4/1 26/4/1 25/4/1
f 34/4/1 30/4/1 29/4/1
f 34/3/1 27/3/1 33/3/1
f 34/4/1 28/4/1 27/4/1
f 34/4/1 29/4/1 28/4/1
f 35/3/1 31/3/1 30/3/1
f 35/4/1 30/4/1 34/4/1
f 36/4/1 32/4/1 31/4/1
f 36/3/1 31/3/1 35/3/1
f 37/4/1 33/4/1 25/4/1
f 37/4/1 34/4/1 33/4/1
f 37/4/1 36/4/1 35/4/1
f 37/4/1 35/4/1 34/4/1
f 38/4/1 36/4/1 37/4/1
f 39/4/1 32/4/1 36/4/1
f 39/4/1 36/4/1 38/4/1
f 40/4/1 32/4/1 39/4/1
f 41/4/1 39/4/1 38/4/1
f 42/4/1 39/4/1 41/4/1
f 47/4/1 44/4/1 43/4/1
f 48/4/1 44/4/1 47/4/1
f 49/4/1 46/4/1 45/4/1
f 50/4/1 46/4/1 49/4/1
f 55/4/1 52/4/1 51/4/1
f 56/1/1 53/1/1 52/1/1
f 56/4/1 52/4/1 55/4/1
f 57/4/1 54/4/1 53/4/1
f 57/1/1 53/1/1 56/1/1
f 58/1/1 56/1/1 55/1/1
f 59/4/1 57/4/1 56/4/1
f 59/1/1 56/1/1 58/1/1
f 60/4/1 54/4/1 57/4/1
f 60/4/1 57/4/1 59/4/1
f 65/1/1 62/1/1 61/1/1
f 66/1/1 62/1/1 65/1/1
f 67/1/1 62/1/1 66/1/1
f 68/1/1 64/1/1 63/1/1
f 69/1/1 64/1/1 68/1/1
f 70/1/1 64/1/1 69/1/1
f 75/4/1 72/4/1 71/4/1
f 76/4/1 72/4/1 75/4/1
f 77/4/1 74/4/1 73/4/1
f 78/4/1 74/4/1 77/4/1
f 84/1/1 80/1/1 79/1/1
f 85/1/1 80/1/1 84/1/1
f 86/1/1 82/1/1 81/1/1
f 87/1/1 82/1/1 86/1/1
f 89/1/1 84/1/1 83/1/1
f 90/4/1 85/4/1 84/4/1
f 90/1/1 84/1/1 89/1/1
f 91/4/1 85/4/1 90/4/1
f 92/4/1 87/4/1 86/4/1
f 93/1/1 88/1/1 87/1/1
f 93/4/1 87/4/1 92/4/1
f 94/1/1 88/1/1 93/1/1
f 95/2/1 91/2/1 90/2/1
f 100/2/1 93/2/1 92/2/1
f 101/4/1 90/4/1 89/4/1
f 101/2/1 95/2/1 90/2/1
f 101/2/1 96/2/1 95/2/1
f 102/2/1 96/2/1 101/2/1
f 103/2/1 100/2/1 99/2/1
f 103/2/1 93/2/1 100/2/1
f 104/4/1 94/4/1 93/4/1
f 104/2/1 93/2/1 103/2/1
f 105/4/1 102/4/1 101/4/1
f 105/4/1 101/4/1 89/4/1
f 106/4/1 102/4/1 105/4/1
f 107/2/1 96/2/1 102/2/1
f 107/4/1 102/4/1 106/4/1
f 108/2/1 96/2/1 107/2/1
f 109/2/1 103/2/1 99/2/1
f 110/4/1 104/4/1 103/4/1
f 110/2/1 103/2/1 109/2/1
f 111/4/1 94/4/1 104/4/1
f 111/4/1 104/4/1 110/4/1
f 112/4/1 94/4/1 111/4/1
f 113/4/1 107/4/1 106/4/1
f 113/4/1 108/4/1 107/4/1
f 114/4/1 108/4/1 113/4/1
f 115/2/1 96/2/1 108/2/1
f 115/4/1 108/4/1 114/4/1
f 116/4/1 97/4/1 96/4/1
f 116/2/1 96/2/1 115/2/1
f 117/4/1 99/4/1 98/4/1
f 117/2/1 109/2/1 99/2/1
f 118/4/1 110/4/1 109/4/1
f 118/2/1 109/2/1 117/2/1
f 118/4/1 111/4/1 110/4/1
f 119/4/1 111/4/1 118/4/1
f 120/4/1 111/4/1 119/4/1
f 121/4/1 115/4/1 114/4/1
f 121/4/1 116/4/1 115/4/1
f 122/4/1 116/4/1 121/4/1
f 123/4/1 119/4/1 118/4/1
f 123/4/1 118/4/1 117/4/1
f 124/4/1 119/4/1 123/4/1
f 125/4/1 116/4/1 122/4/1
f 126/4/1 97/4/1 116/4/1
f 126/4/1 116/4/1 125/4/1
f 127/4/1 117/4/1 98/4/1
f 127/4/1 123/4/1 117/4/1
f 128/4/1 123/4/1 127/4/1
f 131/4/1 130/4/1 129/4/1
f 132/4/1 130/4/1 131/4/1
f 133/4/2 134/4/2 137/4/2
f 137/4/2 134/4/2 138/4/2
f 135/4/2 136/4/2 139/4/2
f 139/4/2 136/4/2 140/4/2
f 141/1/2 142/1/2 145/1/2
f 145/1/2 142/1/2 146/1/2
f 143/1/2 144/1/2 147/1/2
f 147/1/2 144/1/2 148/1/2
f 148/1/2 144/1/2 149/1/2
f 150/4/2 151/4/2 155/4/2
f 152/4/2 153/4/2 156/4/2
f 153/1/2 154/1/2 157/1/2
f 156/4/2 153/4/2 157/4/2
f 157/1/2 154/1/2 158/1/2
f 155/4/2 156/4/2 159/4/2
f 150/4/2 155/4/2 159/4/2
f 157/4/2 158/4/2 159/4/2
f 156/4/2 157/4/2 159/4/2
f 159/4/2 158/4/2 160/4/2
f 159/1/2 160/1/2 161/1/2
f 160/4/2 158/4/2 162/4/2
f 161/1/2 160/1/2 162/1/2
f 162/4/2 158/4/2 163/4/2
f 164/1/2 165/1/2 169/1/2
f 169/1/2 165/1/2 170/1/2
f 166/1/2 167/1/2 171/1/2
f 171/1/2 167/1/2 172/1/2
f 168/1/2 169/1/2 174/1/2
f 169/4/2 170/4/2 175/4/2
f 174/1/2 169/1/2 175/1/2
f 175/4/2 170/4/2 176/4/2
f 171/4/2 172/4/2 177/4/2
f 172/1/2 173/1/2 178/1/2
f 177/4/2 172/4/2 178/4/2
f 178/1/2 173/1/2 179/1/2
f 175/2/2 176/2/2 180/2/2
f 177/2/2 178/2/2 185/2/2
f 174/4/2 175/4/2 186/4/2
f 175/2/2 180/2/2 186/2/2
f 180/2/2 181/2/2 186/2/2
f 186/2/2 181/2/2 187/2/2
f 184/2/2 185/2/2 188/2/2
f 185/2/2 178/2/2 188/2/2
f 178/4/2 179/4/2 189/4/2
f 188/2/2 178/2/2 189/2/2
f 186/4/2 187/4/2 190/4/2
f 174/4/2 186/4/2 190/4/2
f 190/4/2 187/4/2 191/4/2
f 187/2/2 181/2/2 192/2/2
f 191/4/2 187/4/2 192/4/2
f 192/2/2 181/2/2 193/2/2
f 184/2/2 188/2/2 194/2/2
f 188/4/2 189/4/2 195/4/2
f 194/2/2 188/2/2 195/2/2
f 189/4/2 179/4/2 196/4/2
f 195/4/2 189/4/2 196/4/2
f 196/4/2 179/4/2 197/4/2
f 191/4/2 192/4/2 198/4/2
f 192/4/2 193/4/2 198/4/2
f 198/4/2 193/4/2 199/4/2
f 193/2/2 181/2/2 200/2/2
f 199/4/2 193/4/2 200/4/2
f 181/4/2 182/4/2 201/4/2
f 200/2/2 181/2/2 201/2/2
f 183/4/2 184/4/2 202/4/2
f 184/2/2 194/2/2 202/2/2
f 194/4/2 195/4/2 203/4/2
f 202/2/2 194/2/2 203/2/2
f 195/4/2 196/4/2 203/4/2
f 203/4/2 196/4/2 204/4/2
f 204/4/2 196/4/2 205/4/2
f 199/4/2 200/4/2 206/4/2
f 200/4/2 201/4/2 206/4/2
f 206/4/2 201/4/2 207/4/2
f 203/4/2 204/4/2 208/4/2
f 202/4/2 203/4/2 208/4/2
f 208/4/2 204/4/2 209/4/2
f 207/4/2 201/4/2 210/4/2
f 201/4/2 182/4/2 211/4/2
f 210/4/2 201/4/2 211/4/2
f 183/4/2 202/4/2 212/4/2
f 202/4/2 208/4/2 212/4/2
f 212/4/2 208/4/2 213/4/2
f 214/4/2 215/4/2 216/4/2
f 216/4/2 215/4/2 217/4/2
f 218/4/2 219/4/2 222/4/2
f 222/4/2 219/4/2 223/4/2
f 220/4/2 221/4/2 224/4/2
f 224/4/2 221/4/2 225/4/2
f 226/4/2 227/4/2 228/4/2
f 228/4/2 227/4/2 229/4/2
f 230/4/2 231/4/2 233/4/2
f 233/4/2 231/4/2 234/4/2
f 232/4/2 233/4/2 236/4/2
f 234/4/2 235/4/2 236/4/2
f 233/4/2 234/4/2 236/4/2
f 236/4/2 235/4/2 237/4/2
f 232/4/2 236/4/2 238/4/2
f 236/1/2 237/1/2 238/1/2
f 237/4/2 235/4/2 239/4/2
f 238/1/2 237/1/2 239/1/2
f 232/4/2 238/4/2 240/4/2
f 238/4/2 239/4/2 240/4/2
f 240/4/2 239/4/2 241/4/2
f 232/4/2 240/4/2 242/4/2
f 240/1/2 241/1/2 242/1/2
f 241/4/2 239/4/2 243/4/2
f 242/1/2 241/1/2 243/1/2
f 232/4/2 242/4/2 244/4/2
f 242/4/2 243/4/2 244/4/2
f 244/4/2 243/4/2 245/4/2
f 239/4/2 235/4/2 246/4/2
f 245/4/2 243/4/2 246/4/2
f 243/4/2 239/4/2 246/4/2
f 246/4/2 235/4/2 247/4/2
f 245/4/2 246/4/2 248/4/2
f 248/4/2 246/4/2 249/4/2
f 253/1/3 251/1/3 250/1/3
f 254/4/3 252/4/3 251/4/3
f 254/1/3 251/1/3 253/1/3
f 255/4/3 252/4/3 254/4/3
f 260/1/3 257/1/3 256/1/3
f 261/1/3 257/1/3 260/1/3
f 262/4/3 259/4/3 258/4/3
f 263/4/3 259/4/3 262/4/3
f 268/4/3 267/4/3 266/4/3
f 270/4/3 265/4/3 264/4/3
f 271/4/3 265/4/3 270/4/3
f 272/1/3 266/1/3 265/1/3
f 272/4/3 265/4/3 271/4/3
f 273/4/3 269/4/3 268/4/3
f 273/1/3 266/1/3 272/1/3
f 273/4/3 268/4/3 266/4/3
f 274/1/3 271/1/3 270/1/3
f 275/4/3 272/4/3 271/4/3
f 275/1/3 271/1/3 274/1/3
f 275/4/3 273/4/3 272/4/3
f 276/4/3 269/4/3 273/4/3
f 276/4/3 273/4/3 275/4/3
f 276/4/3 275/4/3 274/4/3
f 277/4/3 269/4/3 276/4/3
f 278/4/3 269/4/3 277/4/3
f 279/4/3 269/4/3 278/4/3
f 282/4/3 276/4/3 274/4/3
f 283/4/3 276/4/3 282/4/3
f 284/4/3 276/4/3 283/4/3
f 288/4/3 281/4/3 280/4/3
f 289/4/3 281/4/3 288/4/3
f 290/4/3 282/4/3 274/4/3
f 290/1/3 283/1/3 282/1/3
f 291/4/3 287/4/3 286/4/3
f 291/1/3 283/1/3 290/1/3
f 291/4/3 284/4/3 283/4/3
f 291/4/3 286/4/3 285/4/3
f 291/4/3 285/4/3 284/4/3
f 292/4/3 287/4/3 291/4/3
f 293/4/3 287/4/3 292/4/3
f 294/4/3 290/4/3 274/4/3
f 294/4/3 291/4/3 290/4/3
f 294/4/3 292/4/3 291/4/3
f 295/4/3 292/4/3 294/4/3
f 300/4/3 299/4/3 298/4/3
f 301/4/3 299/4/3 300/4/3
f 302/4/3 297/4/3 296/4/3
f 305/4/3 302/4/3 296/4/3
f 306/4/3 304/4/3 303/4/3
f 307/4/3 304/4/3 306/4/3
f 310/4/3 309/4/3 308/4/3
f 311/4/3 309/4/3 310/4/3
f 314/4/3 305/4/3 296/4/3
f 315/4/3 305/4/3 314/4/3
f 316/4/3 313/4/3 312/4/3
f 317/4/3 313/4/3 316/4/3
f 322/4/3 319/4/3 318/4/3
f 323/4/3 319/4/3 322/4/3
f 324/1/3 320/1/3 319/1/3
f 324/4/3 319/4/3 323/4/3
f 325/1/3 320/1/3 324/1/3
f 326/4/3 323/4/3 322/4/3
f 327/4/3 325/4/3 324/4/3
f 328/1/3 322/1/3 321/1/3
f 329/4/3 327/4/3 326/4/3
f 329/1/3 322/1/3 328/1/3
f 329/4/3 326/4/3 322/4/3
f 330/4/3 325/4/3 327/4/3
f 330/4/3 327/4/3 329/4/3
f 331/4/3 325/4/3 330/4/3
f 332/4/3 330/4/3 329/4/3
f 333/1/3 331/1/3 330/1/3
f 333/4/3 330/4/3 332/4/3
f 334/1/3 331/1/3 333/1/3
f 337/2/3 336/2/3 335/2/3
f 338/2/3 336/2/3 337/2/3
f 341/2/3 340/2/3 339/2/3
f 342/2/3 340/2/3 341/2/3
f 345/4/3 344/4/3 343/4/3
f 346/4/3 344/4/3 345/4/3
f 349/4/3 348/4/3 347/4/3
f 350/4/3 348/4/3 349/4/3
f 353/1/3 352/1/3 351/1/3
f 354/1/3 352/1/3 353/1/3
f 357/4/3 356/4/3 355/4/3
f 358/4/3 356/4/3 357/4/3
f 359/4/4 360/4/4 361/4/4
f 361/4/4 360/4/4 362/4/4
f 363/1/4 364/1/4 365/1/4
f 365/1/4 364/1/4 366/1/4
f 367/4/4 368/4/4 369/4/4
f 369/4/4 368/4/4 370/4/4
f 371/2/4 372/2/4 373/2/4
f 373/2/4 372/2/4 374/2/4
f 375/4/4 376/4/4 377/4/4
f 377/4/4 376/4/4 378/4/4
f 379/2/4 380/2/4 381/2/4
f 381/2/4 380/2/4 382/2/4
f 383/4/4 384/4/4 386/4/4
f 386/4/4 384/4/4 387/4/4
f 387/4/4 384/4/4 388/4/4
f 386/4/4 387/4/4 389/4/4
f 388/4/4 384/4/4 390/4/4
f 385/1/4 386/1/4 391/1/4
f 389/4/4 390/4/4 392/4/4
f 391/1/4 386/1/4 392/1/4
f 386/4/4 389/4/4 392/4/4
f 392/4/4 390/4/4 393/4/4
f 392/1/4 393/1/4 394/1/4
f 393/4/4 390/4/4 395/4/4
f 394/1/4 393/1/4 395/1/4
f 390/4/4 384/4/4 396/4/4
f 395/4/4 390/4/4 396/4/4
f 399/4/4 400/4/4 401/4/4
f 401/4/4 400/4/4 402/4/4
f 403/4/4 404/4/4 405/4/4
f 405/4/4 404/4/4 406/4/4
f 397/4/4 398/4/4 409/4/4
f 397/4/4 409/4/4 410/4/4
f 407/4/4 408/4/4 411/4/4
f 411/4/4 408/4/4 412/4/4
f 397/4/4 410/4/4 415/4/4
f 415/4/4 410/4/4 416/4/4
f 413/4/4 414/4/4 417/4/4
f 417/4/4 414/4/4 418/4/4
f 419/4/4 420/4/4 423/4/4
f 420/1/4 421/1/4 423/1/4
f 421/4/4 422/4/4 424/4/4
f 423/1/4 421/1/4 424/1/4
f 424/4/4 422/4/4 425/4/4
f 423/4/4 424/4/4 427/4/4
f 425/4/4 426/4/4 427/4/4
f 424/4/4 425/4/4 427/4/4
f 427/4/4 426/4/4 428/4/4
f 423/4/4 427/4/4 429/4/4
f 427/1/4 428/1/4 429/1/4
f 428/4/4 426/4/4 430/4/4
f 429/1/4 428/1/4 430/1/4
f 423/4/4 429/4/4 431/4/4
f 429/4/4 430/4/4 431/4/4
f 430/4/4 426/4/4 432/4/4
f 431/4/4 430/4/4 432/4/4
f 432/4/4 426/4/4 433/4/4
f 433/4/4 426/4/4 434/4/4
f 419/4/4 423/4/4 437/4/4
f 423/4/4 431/4/4 437/4/4
f 437/4/4 431/4/4 438/4/4
f 437/1/4 438/1/4 439/1/4
f 438/4/4 431/4/4 440/4/4
f 439/1/4 438/1/4 440/1/4
f 440/4/4 431/4/4 441/4/4
f 435/4/4 436/4/4 445/4/4
f 445/4/4 436/4/4 446/4/4
f 443/4/4 444/4/4 447/4/4
f 439/4/4 440/4/4 447/4/4
f 440/4/4 441/4/4 447/4/4
f 442/4/4 443/4/4 447/4/4
f 441/4/4 442/4/4 447/4/4
f 447/4/4 444/4/4 448/4/4
f 439/4/4 447/4/4 449/4/4
f 449/4/4 447/4/4 450/4/4
f 451/1/4 452/1/4 455/1/4
f 455/1/4 452/1/4 456/1/4
f 453/4/4 454/4/4 457/4/4
f 457/4/4 454/4/4 458/4/4
f 459/1/4 460/1/4 462/1/4
f 460/4/4 461/4/4 463/4/4
f 462/1/4 460/1/4 463/1/4
f 463/4/4 461/4/4 464/4/4
f 467/1/5 466/1/5 465/1/5
f 468/1/5 466/1/5 467/1/5
f 471/1/5 470/1/5 469/1/5
f 472/1/5 470/1/5 471/1/5
f 477/4/5 474/4/5 473/4/5
f 478/4/5 474/4/5 477/4/5
f 479/1/5 478/1/5 477/1/5
f 480/4/5 476/4/5 475/4/5
f 481/4/5 476/4/5 480/4/5
f 483/4/5 481/4/5 480/4/5
f 483/4/5 482/4/5 481/4/5
f 484/4/5 482/4/5 483/4/5
f 485/1/5 479/1/5 477/1/5
f 485/1/5 480/1/5 479/1/5
f 486/4/5 483/4/5 480/4/5
f 486/1/5 480/1/5 485/1/5
f 487/1/5 485/1/5 477/1/5
f 488/1/5 485/1/5 487/1/5
f 489/4/5 483/4/5 486/4/5
f 490/4/5 483/4/5 489/4/5
f 491/4/5 488/4/5 487/4/5
f 492/4/5 488/4/5 491/4/5
f 493/1/5 490/1/5 489/1/5
f 494/1/5 490/1/5 493/1/5
f 497/4/5 496/4/5 495/4/5
f 498/4/5 496/4/5 497/4/5
f 501/4/5 500/4/5 499/4/5
f 502/4/5 500/4/5 501/4/5
f 505/4/5 504/4/5 503/4/5
f 506/4/5 504/4/5 505/4/5
f 509/4/5 508/4/5 507/4/5
f 510/4/5 508/4/5 509/4/5
f 511/4/5 508/4/5 510/4/5
f 512/4/5 508/4/5 511/4/5
f 513/4/5 509/4/5 507/4/5
f 514/4/5 508/4/5 512/4/5
f 515/4/5 513/4/5 507/4/5
f 516/4/5 508/4/5 514/4/5
f 517/4/5 515/4/5 507/4/5
f 517/4/5 516/4/5 515/4/5
f 518/4/5 508/4/5 516/4/5
f 518/4/5 516/4/5 517/4/5
f 523/4/5 520/4/5 519/4/5
f 524/1/5 521/1/5 520/1/5
f 524/4/5 520/4/5 523/4/5
f 525/4/5 522/4/5 521/4/5
f 525/1/5 521/1/5 524/1/5
f 526/4/5 522/4/5 525/4/5
f 531/4/5 528/4/5 527/4/5
f 532/1/5 529/1/5 528/1/5
f 532/4/5 528/4/5 531/4/5
f 533/4/5 530/4/5 529/4/5
f 533/1/5 529/1/5 532/1/5
f 534/4/5 530/4/5 533/4/5
f 537/2/5 536/2/5 535/2/5
f 538/2/5 536/2/5 537/2/5
f 541/1/5 540/1/5 539/1/5
f 542/1/5 540/1/5 541/1/5
f 545/1/5 544/1/5 543/1/5
f 546/1/5 544/1/5 545/1/5
f 549/1/5 548/1/5 547/1/5
f 550/1/5 548/1/5 549/1/5
f 553/1/5 552/1/5 551/1/5
f 554/1/5 552/1/5 553/1/5
f 555/4/6 556/4/6 557/4/6
f 557/4/6 556/4/6 558/4/6
f 559/4/6 560/4/6 561/4/6
f 561/4/6 560/4/6 562/4/6
f 563/4/6 564/4/6 565/4/6
f 565/4/6 564/4/6 566/4/6
f 567/4/6 568/4/6 569/4/6
f 569/4/6 568/4/6 570/4/6
f 571/2/6 572/2/6 573/2/6
f 573/2/6 572/2/6 574/2/6
f 575/2/6 576/2/6 577/2/6
f 577/2/6 576/2/6 578/2/6
f 579/2/6 580/2/6 581/2/6
f 581/2/6 580/2/6 582/2/6
f 583/4/6 584/4/6 587/4/6
f 587/4/6 584/4/6 588/4/6
f 585/4/6 586/4/6 589/4/6
f 589/4/6 586/4/6 590/4/6
f 591/4/6 592/4/6 595/4/6
f 595/4/6 592/4/6 596/4/6
f 593/4/6 594/4/6 597/4/6
f 597/4/6 594/4/6 598/4/6
f 599/4/6 600/4/6 604/4/6
f 601/4/6 602/4/6 605/4/6
f 603/4/6 604/4/6 607/4/6
f 604/4/6 600/4/6 607/4/6
f 605/4/6 606/4/6 608/4/6
f 601/4/6 605/4/6 608/4/6
f 603/4/6 607/4/6 609/4/6
f 608/4/6 606/4/6 610/4/6
f 603/4/6 609/4/6 611/4/6
f 609/4/6 610/4/6 611/4/6
f 610/4/6 606/4/6 612/4/6
f 611/4/6 610/4/6 612/4/6
f 603/4/6 611/4/6 613/4/6
f 612/4/6 606/4/6 614/4/6
f 603/4/6 613/4/6 615/4/6
f 615/4/6 613/4/6 616/4/6
f 614/4/6 606/4/6 617/4/6
f 617/4/6 606/4/6 618/4/6
f 616/4/6 613/4/6 619/4/6
f 619/4/6 613/4/6 620/4/6
f 614/4/6 617/4/6 621/4/6
f 621/4/6 617/4/6 622/4/6
f 623/4/6 624/4/6 625/4/6
f 625/4/6 624/4/6 626/4/6
f 627/4/6 628/4/6 629/4/6
f 629/4/6 628/4/6 630/4/6
f 631/4/6 632/4/6 633/4/6
f 633/4/6 632/4/6 634/4/6
f 635/4/6 636/4/6 637/4/6
f 637/4/6 636/4/6 638/4/6
f 639/4/6 640/4/6 641/4/6
f 641/4/6 640/4/6 642/4/6
f 643/4/6 644/4/6 645/4/6
f 645/4/6 644/4/6 646/4/6
f 647/4/6 648/4/6 649/4/6
f 649/4/6 648/4/6 650/4/6
f 651/4/6 652/4/6 653/4/6
f 653/4/6 652/4/6 654/4/6
