# MagicaVoxel @ Ephtracy

# group
o 

# material
mtllib Armour.mtl
usemtl palette

# normals
vn -1 0 0
vn 1 0 0
vn 0 0 1
vn 0 0 -1
vn 0 -1 0
vn 0 1 0

# texcoords
vt 0.498047 0.5
vt 0.529297 0.5
vt 0.560547 0.5
vt 0.986328 0.5

# verts
v -0.4 0 0.3
v -0.4 0 -0.1
v -0.4 0.1 0.3
v -0.4 0.1 -0.1
v -0.3 0 0.4
v -0.3 0 0.3
v -0.3 0 -0.1
v -0.3 0 -0.3
v -0.3 0.1 0.4
v -0.3 0.1 0.3
v -0.3 0.1 -0.1
v -0.3 0.1 -0.3
v -0.3 0.2 0.3
v -0.3 0.2 -0.1
v -0.2 0 0.5
v -0.2 0 0.4
v -0.2 0 -0.3
v -0.2 0 -0.4
v -0.2 0.1 0.5
v -0.2 0.1 0.4
v -0.2 0.1 0.3
v -0.2 0.1 -0.1
v -0.2 0.1 -0.3
v -0.2 0.1 -0.4
v -0.2 0.2 0.4
v -0.2 0.2 0.3
v -0.2 0.2 -0.1
v -0.2 0.2 -0.3
v -0.1 0 -0.4
v -0.1 0 -0.5
v -0.1 0.1 -0.3
v -0.1 0.1 -0.4
v -0.1 0.1 -0.5
v -0.1 0.2 -0.3
v -0.1 0.2 -0.4
v 0.1 0 -0.4
v 0.1 0 -0.5
v 0.1 0.1 -0.3
v 0.1 0.1 -0.4
v 0.1 0.1 -0.5
v 0.1 0.2 -0.3
v 0.1 0.2 -0.4
v 0.2 0 0.5
v 0.2 0 0.4
v 0.2 0 -0.3
v 0.2 0 -0.4
v 0.2 0.1 0.5
v 0.2 0.1 0.4
v 0.2 0.1 0.3
v 0.2 0.1 -0.1
v 0.2 0.1 -0.3
v 0.2 0.1 -0.4
v 0.2 0.2 0.4
v 0.2 0.2 0.3
v 0.2 0.2 -0.1
v 0.2 0.2 -0.3
v 0.3 0 0.4
v 0.3 0 0.3
v 0.3 0 -0.1
v 0.3 0 -0.3
v 0.3 0.1 0.4
v 0.3 0.1 0.3
v 0.3 0.1 -0.1
v 0.3 0.1 -0.3
v 0.3 0.2 0.3
v 0.3 0.2 -0.1
v 0.4 0 0.3
v 0.4 0 -0.1
v 0.4 0.1 0.3
v 0.4 0.1 -0.1
v -0.2 0 0.5
v -0.2 0.1 0.5
v 0.2 0 0.5
v 0.2 0.1 0.5
v -0.3 0 0.4
v -0.3 0.1 0.4
v -0.2 0 0.4
v -0.2 0.1 0.4
v -0.2 0.2 0.4
v 0.2 0 0.4
v 0.2 0.1 0.4
v 0.2 0.2 0.4
v 0.3 0 0.4
v 0.3 0.1 0.4
v -0.4 0 0.3
v -0.4 0.1 0.3
v -0.3 0 0.3
v -0.3 0.1 0.3
v -0.3 0.2 0.3
v -0.2 0.1 0.3
v -0.2 0.2 0.3
v 0.2 0.1 0.3
v 0.2 0.2 0.3
v 0.3 0 0.3
v 0.3 0.1 0.3
v 0.3 0.2 0.3
v 0.4 0 0.3
v 0.4 0.1 0.3
v -0.4 0 -0.1
v -0.4 0.1 -0.1
v -0.3 0 -0.1
v -0.3 0.1 -0.1
v -0.3 0.2 -0.1
v -0.2 0.1 -0.1
v -0.2 0.2 -0.1
v 0.2 0.1 -0.1
v 0.2 0.2 -0.1
v 0.3 0 -0.1
v 0.3 0.1 -0.1
v 0.3 0.2 -0.1
v 0.4 0 -0.1
v 0.4 0.1 -0.1
v -0.3 0 -0.3
v -0.3 0.1 -0.3
v -0.2 0 -0.3
v -0.2 0.1 -0.3
v -0.2 0.2 -0.3
v -0.1 0.1 -0.3
v -0.1 0.2 -0.3
v 0.1 0.1 -0.3
v 0.1 0.2 -0.3
v 0.2 0 -0.3
v 0.2 0.1 -0.3
v 0.2 0.2 -0.3
v 0.3 0 -0.3
v 0.3 0.1 -0.3
v -0.2 0 -0.4
v -0.2 0.1 -0.4
v -0.1 0 -0.4
v -0.1 0.1 -0.4
v -0.1 0.2 -0.4
v 0.1 0 -0.4
v 0.1 0.1 -0.4
v 0.1 0.2 -0.4
v 0.2 0 -0.4
v 0.2 0.1 -0.4
v -0.1 0 -0.5
v -0.1 0.1 -0.5
v 0.1 0 -0.5
v 0.1 0.1 -0.5
v -0.2 0 0.5
v 0.2 0 0.5
v -0.3 0 0.4
v -0.2 0 0.4
v 0.2 0 0.4
v 0.3 0 0.4
v -0.4 0 0.3
v -0.3 0 0.3
v -0.2 0 0.3
v 0.2 0 0.3
v 0.3 0 0.3
v 0.4 0 0.3
v -0.4 0 -0.1
v -0.3 0 -0.1
v -0.2 0 -0.1
v 0.2 0 -0.1
v 0.3 0 -0.1
v 0.4 0 -0.1
v -0.3 0 -0.3
v -0.2 0 -0.3
v -0.1 0 -0.3
v 0.1 0 -0.3
v 0.2 0 -0.3
v 0.3 0 -0.3
v -0.2 0 -0.4
v -0.1 0 -0.4
v 0.1 0 -0.4
v 0.2 0 -0.4
v -0.1 0 -0.5
v 0.1 0 -0.5
v -0.2 0.1 0.5
v 0.2 0.1 0.5
v -0.3 0.1 0.4
v -0.2 0.1 0.4
v 0.2 0.1 0.4
v 0.3 0.1 0.4
v -0.4 0.1 0.3
v -0.3 0.1 0.3
v -0.2 0.1 0.3
v 0.2 0.1 0.3
v 0.3 0.1 0.3
v 0.4 0.1 0.3
v -0.4 0.1 -0.1
v -0.3 0.1 -0.1
v -0.2 0.1 -0.1
v 0.2 0.1 -0.1
v 0.3 0.1 -0.1
v 0.4 0.1 -0.1
v -0.3 0.1 -0.3
v -0.2 0.1 -0.3
v -0.1 0.1 -0.3
v 0.1 0.1 -0.3
v 0.2 0.1 -0.3
v 0.3 0.1 -0.3
v -0.2 0.1 -0.4
v -0.1 0.1 -0.4
v 0.1 0.1 -0.4
v 0.2 0.1 -0.4
v -0.1 0.1 -0.5
v 0.1 0.1 -0.5
v -0.2 0.2 0.4
v 0.2 0.2 0.4
v -0.3 0.2 0.3
v -0.2 0.2 0.3
v 0 0.2 0.3
v 0.2 0.2 0.3
v 0.3 0.2 0.3
v -0.1 0.2 0.2
v 0 0.2 0.2
v 0.1 0.2 0.2
v 0.2 0.2 0.2
v -0.2 0.2 0.1
v -0.1 0.2 0.1
v 0 0.2 0.1
v 0.1 0.2 0.1
v -0.2 0.2 0
v -0.1 0.2 0
v 0.1 0.2 0
v 0.2 0.2 0
v -0.3 0.2 -0.1
v -0.2 0.2 -0.1
v -0.1 0.2 -0.1
v 0 0.2 -0.1
v 0.2 0.2 -0.1
v 0.3 0.2 -0.1
v -0.2 0.2 -0.3
v -0.1 0.2 -0.3
v 0.1 0.2 -0.3
v 0.2 0.2 -0.3
v -0.1 0.2 -0.4
v 0.1 0.2 -0.4

# faces
f 3/4/1 2/4/1 1/4/1
f 4/4/1 2/4/1 3/4/1
f 9/4/1 6/4/1 5/4/1
f 10/4/1 6/4/1 9/4/1
f 11/4/1 8/4/1 7/4/1
f 12/4/1 8/4/1 11/4/1
f 13/3/1 11/3/1 10/3/1
f 14/3/1 11/3/1 13/3/1
f 19/4/1 16/4/1 15/4/1
f 20/4/1 16/4/1 19/4/1
f 23/4/1 18/4/1 17/4/1
f 24/4/1 18/4/1 23/4/1
f 25/3/1 21/3/1 20/3/1
f 26/3/1 21/3/1 25/3/1
f 27/3/1 23/3/1 22/3/1
f 28/3/1 23/3/1 27/3/1
f 32/4/1 30/4/1 29/4/1
f 33/4/1 30/4/1 32/4/1
f 34/3/1 32/3/1 31/3/1
f 35/3/1 32/3/1 34/3/1
f 36/4/2 37/4/2 39/4/2
f 39/4/2 37/4/2 40/4/2
f 38/3/2 39/3/2 41/3/2
f 41/3/2 39/3/2 42/3/2
f 43/4/2 44/4/2 47/4/2
f 47/4/2 44/4/2 48/4/2
f 45/4/2 46/4/2 51/4/2
f 51/4/2 46/4/2 52/4/2
f 48/3/2 49/3/2 53/3/2
f 53/3/2 49/3/2 54/3/2
f 50/3/2 51/3/2 55/3/2
f 55/3/2 51/3/2 56/3/2
f 57/4/2 58/4/2 61/4/2
f 61/4/2 58/4/2 62/4/2
f 59/4/2 60/4/2 63/4/2
f 63/4/2 60/4/2 64/4/2
f 62/3/2 63/3/2 65/3/2
f 65/3/2 63/3/2 66/3/2
f 67/4/2 68/4/2 69/4/2
f 69/4/2 68/4/2 70/4/2
f 73/4/3 72/4/3 71/4/3
f 74/4/3 72/4/3 73/4/3
f 77/4/3 76/4/3 75/4/3
f 78/4/3 76/4/3 77/4/3
f 81/3/3 79/3/3 78/3/3
f 82/3/3 79/3/3 81/3/3
f 83/4/3 81/4/3 80/4/3
f 84/4/3 81/4/3 83/4/3
f 87/4/3 86/4/3 85/4/3
f 88/4/3 86/4/3 87/4/3
f 90/3/3 89/3/3 88/3/3
f 91/3/3 89/3/3 90/3/3
f 95/3/3 93/3/3 92/3/3
f 96/3/3 93/3/3 95/3/3
f 97/4/3 95/4/3 94/4/3
f 98/4/3 95/4/3 97/4/3
f 99/4/4 100/4/4 101/4/4
f 101/4/4 100/4/4 102/4/4
f 102/3/4 103/3/4 104/3/4
f 104/3/4 103/3/4 105/3/4
f 106/3/4 107/3/4 109/3/4
f 109/3/4 107/3/4 110/3/4
f 108/4/4 109/4/4 111/4/4
f 111/4/4 109/4/4 112/4/4
f 113/4/4 114/4/4 115/4/4
f 115/4/4 114/4/4 116/4/4
f 116/3/4 117/3/4 118/3/4
f 118/3/4 117/3/4 119/3/4
f 120/3/4 121/3/4 123/3/4
f 123/3/4 121/3/4 124/3/4
f 122/4/4 123/4/4 125/4/4
f 125/4/4 123/4/4 126/4/4
f 127/4/4 128/4/4 129/4/4
f 129/4/4 128/4/4 130/4/4
f 130/3/4 131/3/4 133/3/4
f 133/3/4 131/3/4 134/3/4
f 132/4/4 133/4/4 135/4/4
f 135/4/4 133/4/4 136/4/4
f 137/4/4 138/4/4 139/4/4
f 139/4/4 138/4/4 140/4/4
f 144/4/5 142/4/5 141/4/5
f 145/4/5 142/4/5 144/4/5
f 148/4/5 144/4/5 143/4/5
f 149/3/5 145/3/5 144/3/5
f 149/4/5 144/4/5 148/4/5
f 150/4/5 146/4/5 145/4/5
f 150/3/5 145/3/5 149/3/5
f 151/4/5 146/4/5 150/4/5
f 153/4/5 148/4/5 147/4/5
f 154/3/5 149/3/5 148/3/5
f 154/4/5 148/4/5 153/4/5
f 154/3/5 150/3/5 149/3/5
f 154/3/5 151/3/5 150/3/5
f 155/3/5 151/3/5 154/3/5
f 156/3/5 151/3/5 155/3/5
f 157/4/5 152/4/5 151/4/5
f 157/3/5 151/3/5 156/3/5
f 158/4/5 152/4/5 157/4/5
f 159/4/5 155/4/5 154/4/5
f 160/3/5 156/3/5 155/3/5
f 160/4/5 155/4/5 159/4/5
f 161/3/5 156/3/5 160/3/5
f 162/3/5 156/3/5 161/3/5
f 163/4/5 157/4/5 156/4/5
f 163/3/5 156/3/5 162/3/5
f 164/4/5 157/4/5 163/4/5
f 165/4/5 161/4/5 160/4/5
f 166/3/5 162/3/5 161/3/5
f 166/4/5 161/4/5 165/4/5
f 167/4/5 163/4/5 162/4/5
f 167/3/5 162/3/5 166/3/5
f 168/4/5 163/4/5 167/4/5
f 169/4/5 167/4/5 166/4/5
f 170/4/5 167/4/5 169/4/5
f 171/4/6 172/4/6 174/4/6
f 174/4/6 172/4/6 175/4/6
f 173/4/6 174/4/6 178/4/6
f 178/4/6 174/4/6 179/4/6
f 175/4/6 176/4/6 180/4/6
f 180/4/6 176/4/6 181/4/6
f 177/4/6 178/4/6 183/4/6
f 183/4/6 178/4/6 184/4/6
f 181/4/6 182/4/6 187/4/6
f 187/4/6 182/4/6 188/4/6
f 184/4/6 185/4/6 189/4/6
f 189/4/6 185/4/6 190/4/6
f 186/4/6 187/4/6 193/4/6
f 193/4/6 187/4/6 194/4/6
f 190/4/6 191/4/6 195/4/6
f 195/4/6 191/4/6 196/4/6
f 192/4/6 193/4/6 197/4/6
f 197/4/6 193/4/6 198/4/6
f 196/4/6 197/4/6 199/4/6
f 199/4/6 197/4/6 200/4/6
f 201/3/6 202/3/6 204/3/6
f 204/3/6 202/3/6 205/3/6
f 205/3/6 202/3/6 206/3/6
f 204/2/6 205/2/6 208/2/6
f 205/1/6 206/1/6 209/1/6
f 208/2/6 205/2/6 209/2/6
f 209/1/6 206/1/6 210/1/6
f 206/3/6 207/3/6 211/3/6
f 210/1/6 206/1/6 211/1/6
f 203/3/6 204/3/6 212/3/6
f 204/2/6 208/2/6 212/2/6
f 209/1/6 210/1/6 213/1/6
f 212/2/6 208/2/6 213/2/6
f 208/1/6 209/1/6 213/1/6
f 213/1/6 210/1/6 214/1/6
f 210/2/6 211/2/6 215/2/6
f 214/1/6 210/1/6 215/1/6
f 203/3/6 212/3/6 216/3/6
f 213/1/6 214/1/6 216/1/6
f 212/1/6 213/1/6 216/1/6
f 216/1/6 214/1/6 217/1/6
f 215/2/6 211/2/6 218/2/6
f 214/2/6 215/2/6 218/2/6
f 211/3/6 207/3/6 219/3/6
f 218/2/6 211/2/6 219/2/6
f 216/3/6 217/3/6 220/3/6
f 203/3/6 216/3/6 220/3/6
f 220/3/6 217/3/6 221/3/6
f 217/1/6 214/1/6 222/1/6
f 221/3/6 217/3/6 222/3/6
f 214/2/6 218/2/6 223/2/6
f 222/1/6 214/1/6 223/1/6
f 219/3/6 207/3/6 224/3/6
f 218/3/6 219/3/6 224/3/6
f 224/3/6 207/3/6 225/3/6
f 221/3/6 222/3/6 226/3/6
f 222/2/6 223/2/6 227/2/6
f 226/3/6 222/3/6 227/3/6
f 218/3/6 224/3/6 228/3/6
f 227/2/6 223/2/6 228/2/6
f 223/2/6 218/2/6 228/2/6
f 228/3/6 224/3/6 229/3/6
f 227/3/6 228/3/6 230/3/6
f 230/3/6 228/3/6 231/3/6
